<svg xmlns="http://www.w3.org/2000/svg" xmlns:xlink="http://www.w3.org/1999/xlink" width="24" height="24"><svg viewBox="0 0 100 100"><path d="M50 2A48 48 0 002 50a48 48 0 0048 48 48 48 0 0048-48A48 48 0 0050 2zm0 5.42A42.108 42.579 0 0192.107 50 42.108 42.579 0 0150 92.58 42.108 42.579 0 017.893 50 42.108 42.579 0 0150 7.42z" fill="#fd0f15"/></svg><svg xmlns="http://www.w3.org/2000/svg" viewBox="0 0 24 24" transform="matrix(.69 0 0 .69 15.5 15.5)" fill="#fd0f15"><path d="M15 19a.997.997 0 01-.707-.293l-6-6a1 1 0 010-1.414l6-6a1 1 0 011.414 1.414L10.414 12l5.293 5.293A1 1 0 0115 19z"/></svg></svg>
