<svg class="cities__background" xmlns="http://www.w3.org/2000/svg" x="0px" y="0px" viewBox="0 0 375 256">
<rect y="184" class="st0" width="375" height="350"/>
<path class="st0" d="M272.1,85.3c-12.3-1.3-23,2-31.8,12.2c0.3,0.7,0.6,1.3,0.7,1.7c4.4-2.6,8.8-5.3,13.2-7.6
	c5.1-2.7,10.5-4.3,16.1-4.4c9.2-0.2,16,4.5,20.5,13.9c2.2,4.6,4.5,13.1,4.6,17.2c-15.7-15.3-33.4-22.2-53.9-17.4
	c0.3,0.1,0.5,0.3,0.8,0.4c3.3,1.3,6.4,3,9.1,5.8c3.6,3.8,4.6,8.5,2.8,13.7c-0.7,2.2-1.8,4.2-2.8,6.4c2.7,2.4,4.5,5.9,6,9.6
	c0.1,0,0.2,0,0.4,0c0.2-0.5,0.3-1.1,0.5-1.6c0.9-3.1,1.5-6.5,2.7-9.4c2.4-5.7,6.7-7.5,11.9-5.5c1.3,0.5,2.5,1.2,3.8,1.9
	c-7.6,2.1-13.7,6.4-17.6,14.2c0.1,0.1,0.2,0.3,0.2,0.4c0.3-0.3,0.7-0.5,1-0.8c3.1-3.4,6.5-6.4,10.5-8.3c4.2-2,8.4-2.5,12.4,0.5
	c3.7,2.8,5.8,7,7.6,12c-6.2-3.8-12.4-5.7-19.1-5.4c-3.8,0.1-7.4,1-10.9,2.9c0.3,0,0.7,0,1,0.1c1.7,0.3,3.4,0.4,5,1
	c3.4,1.2,4.8,4.1,4.3,8.2c-0.1,1-0.4,1.9-0.6,3.3c-1.9-5.4-4.6-9.4-9-11.6c-0.1,0.1-0.1,0.2-0.1,0.3c3.5,6.1,5.1,13,6.1,20
	c1.7,12.1,1.6,24.2,1,36.3c-0.1,2.3-1,3.3-3.1,3.3c-0.4,0-0.8,0.1-1.3,0c-2.6-0.1-4-2.2-3.5-5.2c1.5-8.5,2.4-17.2,2.4-25.9
	c-0.1-8-0.9-15.8-3.8-23.2c-0.6-1.5-1.4-3-2.1-4.6c-3.9,3.7-5.5,8.4-5.9,13.8c-4.7-4.2-2.4-10.7,5.1-14.7c-1.2-0.2-2.4-0.5-3.6-0.6
	c-7.8-0.8-14.9,1.6-21.5,6.4c-0.7,0.5-0.8,1.2-0.9,2.1c-0.5,16.4,1,32.6,3.7,48.7c0.2,1.1,0.4,2.2,0.6,3.2c0.6,3.3-0.8,6.5-3.6,7.7
	c-2.4,1.1-4.9,0.9-7.3,0.3c-2.1-0.5-2.9-2.6-3.1-5c-1-15.6-1.1-31.1-0.1-46.7c0.7-10.6,1.8-21.2,4.2-31.5c1.8-8.1,4.3-15.9,8.6-22.8
	c0.1-0.1,0.1-0.3,0.2-0.6c-8.2,4-13.3,11.2-16.4,20.8c-1.3-4.2-2.1-8.2-1-12.4c1-4.1,3.6-6.4,6.9-7.8c3-1.3,6.2-1.8,9.5-1.8
	c0.7,0,1.4,0,2.3,0c-3.4-3.4-19.1-6.2-27.2-5.2c-9.3,1.1-18.1,4.1-26.4,9.4c0-0.1-0.1-0.3-0.1-0.4c2.3-6.6,5.3-12.8,9.8-17.7
	c6.5-7,14.1-8.2,22.3-5.2c7.1,2.6,13.1,7.4,18.7,13c1.3,1.3,2.5,2.7,3.8,4c0.3,0.3,0.9,0.3,1.6,0.6c-5.4-12.4-17.4-22.8-32-25.7
	c0.4-0.3,0.6-0.5,0.9-0.7c3.4-2.1,6.9-3.7,10.7-4.3c6.7-0.9,11.8,2.2,15.5,8.5c3.5,6,5.1,12.8,6.1,19.9c0.1,0.9,0.1,1.9,1.3,2.2
	c0.4-1,0.8-2.1,1.3-3.1c1.9-4.3,4-8.4,7.1-11.7c1.6-1.7,3.4-3.2,5.3-4.3c3.3-1.9,6.8-1.6,10.2,0.1C266.9,79.6,269.5,82.2,272.1,85.3
	z M241,102.3c-4,4.2-10.6,27-9.6,32.7c4.3-4.1,8.3-4.3,12.8-3.1c2.4,0.6,4.6,1.6,6.9,2.8c2,1,3.9,2.3,5.8,3.5c0.4-1,0.5-1-0.2-1.7
	c-2-2.2-4.3-3.9-7-4.9c-3.2-1.3-6.5-1.7-10-1.2c2.5-4.3,6.5-5.6,11.5-3.7C250.5,116.9,247.4,108.7,241,102.3z"/>
<path class="st1" d="M140.8,170.6c6.4,0,12.9,0,19.3,0c3.2,0,5.8,1.2,7.8,3.7c0.3,0.4,0.7,0.5,1.1,0.5c0.6,0,1.2,0,1.8,0
	c0.7,0,1.1,0.4,1.1,1.1c0,1,0,2.1,0,3.1c0,0.8-0.4,1.2-1.2,1.2c-1.1,0-2.1,0-3.1,0c-0.6,0-0.9-0.2-1-0.8c-0.3-2.1-1.3-3.8-3.3-4.9
	c-2.7-1.5-6.1-0.8-7.9,1.7c-0.7,1-1.2,2.1-1.3,3.3c-0.1,0.6-0.3,0.7-0.9,0.7c-6.1,0-12.2,0-18.3,0c-0.8,0-0.8-0.5-0.9-1.1
	c-0.5-2.6-2-4.5-4.6-5.2c-2.4-0.7-5.1,0.3-6.5,2.3c-0.7,1-1.2,2.1-1.3,3.3c-0.1,0.5-0.3,0.7-0.8,0.7c-0.2,0-0.4,0-0.7,0
	c-0.4,0-1,0.2-1.1-0.3c-0.1-0.6-0.4-1.3,0.3-1.7c0.2-0.1,0.1-0.4,0.1-0.5c0-2,0-4,0-6c0-0.9,0.1-1,1-1
	C127.3,170.6,134.1,170.6,140.8,170.6z"/>
<path class="st1" d="M170.9,172.2c0-1.8,0-3.6,0-5.5c0-0.7,0-1.5-0.2-2.2c-0.8-2.7-2.1-5.1-3.7-7.4c-1.4-2.1-3.1-3.8-5.5-4.8
	c-2.3-1-4.6-1.5-7.1-1.8c-3.9-0.5-7.8-0.5-12.3-0.5c-5.6,0-11.7,0.6-17.9,1.4c-2.8,0.3-4.7,2.4-4.7,5.4c0.1,3.7,0,7.4,0,11.2
	c0,1.2,0,1.2,1.2,1.2c13.1,0,26.2,0,39.3,0c1.9,0,3.7,0.3,5.4,1.2c1.3,0.6,2.5,1.5,3.5,2.6c0.5,0.6,1.1,0.5,1.6,0.4
	C171.1,173.2,170.9,172.6,170.9,172.2z M131.1,160.4c0,1.2,0,2.4,0,3.5c0,0.6-0.2,0.9-0.8,0.9c-2.4,0-4.8,0-7.3,0
	c-0.6,0-0.8-0.3-0.8-0.9c0-2.4,0-4.8,0-7.2c0-0.6,0.2-0.9,0.8-0.9c2.4,0,4.8,0,7.3,0c0.6,0,0.8,0.3,0.8,0.9
	C131.1,158,131.1,159.2,131.1,160.4z M142.1,164c0,0.8-0.1,0.9-0.9,0.9c-1.2,0-2.4,0-3.6,0c-1.2,0-2.4,0-3.5,0
	c-0.6,0-0.9-0.2-0.9-0.8c0-2.4,0-4.9,0-7.3c0-0.6,0.3-0.8,0.9-0.8c2.4,0,4.8,0,7.2,0c0.8,0,0.9,0.1,0.9,0.9
	C142.1,159.2,142.1,161.6,142.1,164z M152.3,164.9c-2.4,0-4.9,0-7.3,0c-0.6,0-0.8-0.2-0.8-0.8c0-2.5,0-5,0-7.4
	c0-0.6,0.3-0.8,0.8-0.8c2.4,0,4.9,0,7.3,0c0.6,0,0.8,0.3,0.8,0.8c0,1.2,0,2.4,0,3.6c0,1.2,0,2.5,0,3.7
	C153.2,164.6,152.9,164.9,152.3,164.9z M167.5,164.8c-1.9,0-3.8,0-5.7,0c-1.9,0-3.8,0-5.6,0c-0.8,0-0.9-0.1-0.9-0.9
	c0-2.4,0-4.8,0-7.2c0-0.8,0.1-0.9,0.9-0.9c1.8,0.1,3.6-0.2,5.4,0.1c1.8,0.3,3.3,1.3,4.2,2.9c1,1.5,1.8,3.1,2.5,4.8
	C168.5,164.6,168.3,164.8,167.5,164.8z"/>
<path class="st1" d="M128,175.9c-2.2,0-4.3,2.3-4.2,4.4c0.1,2.3,1.9,4.2,4.2,4.2c2.3,0,4.2-1.9,4.2-4.2
	C132.2,178.2,130.2,175.9,128,175.9z M128,182.3c-1.1,0-2.1-1-2.1-2.1c0-1.1,0.9-2.1,2.1-2.1c1.1,0,2.1,0.9,2.1,2.1
	C130.1,181.3,129.1,182.3,128,182.3z"/>
<path class="st1" d="M160.5,175.9c-2.2,0-4.3,2.3-4.2,4.4c0.1,2.3,1.9,4.2,4.2,4.2c2.3,0,4.2-1.9,4.2-4.2
	C164.7,178.2,162.7,175.9,160.5,175.9z M160.5,182.3c-1.2,0-2.1-0.9-2.1-2.1c0-1.1,0.9-2.1,2.1-2.1c1.1,0,2.1,0.9,2.1,2.1
	C162.6,181.3,161.7,182.3,160.5,182.3z"/>
<g>
	<path class="st0" d="M367.3,184.2c-4.6,0-8.6,0.1-12.7-0.1c-0.7,0-1.6-1.1-2-1.8c-1.7-3-3.5-5.9-4.7-9.1c-1.9-5-5.5-7.5-10-9.1
		c-9-3.1-17.9-2.8-26.7,1.2c-3.2,1.4-5.7,3.7-7.2,7.2c-1.1,2.6-2.8,4.9-3.7,7.5c-1.1,3.7-3.3,4.6-6.7,4.3c-2.9-0.3-5.9-0.1-9.3-0.1
		c2-3.7,3.8-7.2,5.7-10.6c3.1-5.6,6.4-11.1,9.5-16.7c0.7-1.2,1.1-3,0.8-4.1c-1-3.3,0.7-3.2,2.8-3.1c13.5,0.1,27,0,40.4,0
		c1,0,2,0,3,0c4.5,0,4.4,0,4.7,4.6c0.1,1.2,0.6,2.4,1.2,3.5c4.6,8.1,9.2,16.2,13.8,24.2C366.5,182.5,366.8,183.1,367.3,184.2z"/>
	<path class="st0" d="M317.4,107.8c1.9-28.2,3.8-56.5,5.8-84.9c1.6,0,3.5,0,5.2,0c1.9,28.3,3.8,56.5,5.8,84.9
		C328.8,107.8,322.8,107.8,317.4,107.8z"/>
	<path class="st0" d="M343.7,141.9c-3,0-5.7,0.1-8.3-0.1c-0.7-0.1-1.7-1.3-1.9-2.1c-1-3.8-1.8-7.7-2.4-11.6
		c-0.2-1.6-0.8-2.1-2.3-2.1c-2.5,0.1-5,0-7.7,0c-1.1,5.3-2.2,10.5-3.4,15.7c-3.4,0-6.4,0-9.9,0c1.1-3.6,2.3-7,3.3-10.4
		c0.9-3.2,1.6-6.5,2.6-9.6c0.3-0.9,1.6-1.9,2.4-1.9c6.6-0.2,13.2-0.1,19.7,0c0.7,0,1.9,0.8,2.1,1.6
		C339.9,127.9,341.7,134.6,343.7,141.9z"/>
	<path class="st0" d="M325.8,117.7c-3.3,0-6.6-0.1-9.9,0.1c-2.9,0.1-2.9-2.2-3.1-4c-0.3-2.1,0.8-3.6,2.8-3.6
		c6.9-0.1,13.8-0.2,20.6,0.1c1.1,0.1,2.9,2.3,2.9,3.5c-0.1,1.8-0.5,4.2-3.5,4C332.4,117.5,329.1,117.7,325.8,117.7z"/>
	<path class="st0" d="M350.6,144.8c0.5,2.5-1,2.5-2.5,2.5c-5.1,0-10.2,0-15.2,0c-9.8,0-19.5-0.1-29.3,0c-1.6,0-2.9-0.1-2.5-2.5
		C317.6,144.8,334.1,144.8,350.6,144.8z"/>
	<path class="st0" d="M325.9,0c0.1,1.8,0.2,3.2,0.3,4.5c0.2,2.3,0.1,4.2,2,6.4c1.7,1.9,1.7,5.7,2,8.7c0.1,0.5-1.6,1.9-2.4,1.8
		c-2.4-0.2-6.3,1.8-6.5-2.8c-0.1-2.8,0.7-6.2,2.3-8.2c1.4-1.7,1.9-3.1,1.9-5.1C325.6,3.7,325.8,2,325.9,0z"/>
</g>
<path class="st0" d="M351.1,186.4c6.9,0,13.8,0,20.7,0c0,0.2,0,0.4,0,0.6c-6.9,0-13.8,0-20.7,0C351.2,186.9,351.1,186.7,351.1,186.4
	z"/>
<path class="st0" d="M300.6,187.1c-6.8,0-13.7,0-20.5,0c0-0.2,0-0.4-0.1-0.6c6.9,0,13.7,0,20.6,0
	C300.7,186.7,300.7,186.9,300.6,187.1z"/>
<path class="st0" d="M14.6,183.9c0-1.1,0-2,0-3.1c1,0,2.1,0,3.2,0c0-6.3,0-12.4,0-18.6c-4.2,0.6-7.5-1.1-10.4-3.8
	c-1.7-1.6-2.4-3.2-2.4-4.9c1.8,0,3.7,0.1,5.5,0c3.4-0.3,6.7-1.1,9.8-2.7c0.6-0.3,1.2-0.7,1.8-1.1c1.5-0.9,2.3-2.1,2.2-4
	c-0.2-2.6-0.1-5.3-0.1-8c0-0.5,0-0.9,0-1.4c-4.3,0.7-8.8-1.8-9.6-5.3c0.7,0.2,1.4,0.4,2.1,0.5c4.4,0.8,8.4-0.4,12.3-2.5
	c6.5-3.5,11.6-8.5,16.3-14c0.5-0.6,1-1.2,1.5-1.8c0,0,0.1,0,0.2-0.1c1.7,1.9,3.4,3.9,5.2,5.8c3.3,3.5,7,6.7,11.2,9.2
	c4.9,2.9,10.1,4.8,15.9,2.9c-0.3,3.2-5.1,6-9.5,5.4c0,1.8,0,3.6,0,5.4c0,1.6,0.1,3.1,0,4.7c-0.1,1.1,0.4,1.8,1.2,2.5
	c3.1,2.5,6.7,3.7,10.5,4.3c2.5,0.4,5,0.4,7.6,0.6c0.6,4-6.8,9.1-12.7,8.4c0,6.2,0,12.3,0,18.6c1,0,2,0,3.1,0c0,1.1,0,2.1,0,3.2
	C57.8,183.9,36.3,183.9,14.6,183.9z M59.9,180.7c0-6.5,0-12.9,0-19.3c-8.6,0-17.2,0-25.7,0c0,6.5,0,12.9,0,19.3
	C42.8,180.7,51.3,180.7,59.9,180.7z M37.4,135.5c0,4.3,0,8.6,0,12.8c6.5,0,12.8,0,19.2,0c0-4.3,0-8.5,0-12.8
	C50.2,135.5,43.9,135.5,37.4,135.5z M27.6,135.5c0,4.3,0,8.5,0,12.8c2.2,0,4.2,0,6.4,0c0-4.3,0-8.5,0-12.8
	C31.8,135.5,29.7,135.5,27.6,135.5z M66.4,135.5c-2.2,0-4.2,0-6.4,0c0,4.3,0,8.5,0,12.8c2.2,0,4.2,0,6.4,0
	C66.4,144.1,66.4,139.9,66.4,135.5z"/>
<path class="st2" d="M280.3,154.9c0.2,0.2,0.5,0.4,0.7,0.6c0.2,0.2,0.2,0.5,0.3,0.7c0.3,0.7,0.2,1.5,0.2,2.3c0,0.8,0.1,1.6,0.2,2.4
	c0,0.2,0.1,0.4,0.1,0.5c0.2,0.6,0,1.1-0.6,1.4c-0.6,0.3-1.2,0.2-1.8-0.3c0.1,0.4,0.1,0.8,0.2,1.1c0.3,1.5,0.1,2.9-0.5,4.3
	c-0.1,0.2-0.2,0.5-0.4,0.7c-0.1,0.2-0.2,0.3-0.2,0.5c0,0.4,0,0.7,0,1.1c0,0.9,0.2,1.7,0.8,2.4c0.4,0.4,0.8,0.8,0.8,1.4
	c0,0.3,0,0.5,0.1,0.8c0,0.6,0.1,1.1,0.1,1.7c0,0.6-0.2,1.1-0.7,1.4c-0.1,0.1-0.3,0.1-0.4,0.1c-0.4-0.2-0.8-1-0.7-1.5
	c0-0.2,0.1-0.4,0.2-0.5c0.5-0.6,0.5-1.5-0.1-2.1c-0.1-0.1-0.2-0.2-0.3-0.2c-0.3-0.3-0.6-0.5-0.9-0.8c-0.3-0.3-0.4-0.7-0.7-1
	c-0.2,0.3-0.4,0.6-0.5,0.9c0,0.1,0,0.2,0.1,0.3c0.4,0.7,0.9,1.4,1.3,2.1c0.1,0.2,0.2,0.4,0.3,0.6c0.3,0.6,0.3,1.2,0.1,1.8
	c-0.1,0.2-0.2,0.4-0.5,0.4c-0.1,0-0.2,0-0.4,0.1c-0.4,0.1-0.7,0-0.9-0.4c-0.1-0.1-0.2-0.2-0.3-0.4c-0.1-0.2-0.1-0.4,0-0.6
	c0.4-0.9,0.4-1.5-0.4-2.1c-0.1-0.1-0.2-0.1-0.3-0.2c-0.4,0.5-0.8,1-1.1,1.5c-0.1,0.2,0,0.4,0,0.6c0.2,0.9,0.4,1.8,0.5,2.6
	c0.3,1.7,0.2,3.5-0.1,5.2c-0.2,0.9-0.3,1.9-0.5,2.8c-0.2,0.7-0.4,1.4-0.7,2c-0.4,0.9-0.6,1.7-0.4,2.7c0.1,0.4,0.2,0.5,0.6,0.5
	c1.3,0.1,2.6,0.2,3.8,0.3c0.4,0,0.8,0.1,1.1,0.2c0.3,0.1,0.5,0.3,0.8,0.5c0.2,0.1,0.4,0.2,0.5,0.4c0.2,0.2,0.4,0.4,0.6,0.6
	c0.1,0.1,0.1,0.2,0,0.3c0,0.1-0.2,0.1-0.3,0.1c-0.8-0.1-1.5-0.2-2.2-0.2c-0.3,0.1-0.4,0.3-0.6,0.3c-1.1,0.2-2.3,0-3.4-0.3
	c-0.6-0.2-0.8-0.2-1.5-0.2c0.2,0.2,0.4,0.4,0.6,0.7c0.2,0.2,0.3,0.3,0.4,0.5c0.1,0.1,0.1,0.2,0,0.3c0,0.1-0.2,0.1-0.3,0.1
	c-0.8,0-1.5-0.1-2.3-0.1c-0.1,0.4-0.4,0.4-0.7,0.4c-1,0.1-2,0-3-0.3c-0.7-0.2-1.4-0.2-2.1-0.1c-0.3,0-0.6,0.1-1,0.1
	c-0.8,0-1.1-0.3-1.1-1.1c0-0.7,0-1.5,0.2-2.2c0.3-1.3,0.1-2.5,0-3.7c-0.1-0.9-0.7-1.6-1.2-2.4c-0.4,0.5-0.7,1.1-1,1.6
	c-0.9,1.4-1.9,2.7-3.1,3.9c-1.5,1.5-3.2,2.6-5.2,2.9c-1,0.2-2,0.2-2.9,0.2c-2.9,0-5.8,0-8.7,0c-0.9,0-1.8,0-2.6,0
	c-0.2,0-0.3,0-0.5,0c-0.1,0-0.2-0.1-0.2-0.2c0-0.1,0.1-0.2,0.2-0.3c0.3-0.1,0.6-0.3,1-0.4c3.5-0.6,7-1.2,10.5-1.9
	c2-0.3,3.7-1.3,5.1-2.7c2-1.9,3.3-4.1,3.9-6.9c0.2-0.9,0.2-1.9,0.1-2.8c-0.1-1.2-0.2-2.4,0-3.6c0.3-2.3,1.2-4.3,2.6-6.2
	c1.2-1.6,2.7-2.9,4.5-3.8c1.2-0.6,2.3-1.2,3.3-2c0.4-0.3,0.8-0.7,1.2-1c0.8-0.7,1.8-1.1,2.7-1.4c1.4-0.5,2.1-1.5,2.3-2.9
	c0-0.3,0.1-0.7,0.1-1c0-0.6,0.1-1.3,0.3-1.9c0.1-0.2,0.1-0.5,0.1-0.8c-1.5-0.7-2.1-2-2.3-3.6c-0.1-0.4,0-0.9,0.1-1.4
	c0.1-0.4,0.3-0.4,0.5-0.2c0.6,0.7,1.4,1.3,2.2,1.8c0.7,0.5,1.2,1.3,1.3,2.2c0.1,0.4,0.1,0.5,0.5,0.5c0.3,0,0.5-0.1,0.5-0.5
	c0.1-1.3,0.8-2.2,1.7-3.1c0.4-0.3,0.8-0.7,1.2-1c0.3-0.3,0.5-0.2,0.5,0.3c0,0.4,0,0.7-0.1,1.1c-0.1,0.5-0.3,1-0.4,1.5
	c-0.1,0.6-0.4,1-0.8,1.4C280.5,154.6,280.4,154.7,280.3,154.9z M270.9,193.7c-0.2-0.6,0-1.1,0.1-1.7c0.1-0.4,0.2-0.7,0.1-1.1
	c-0.1-1.2-0.5-2.3-1-3.4c-0.2-0.4-0.5-0.8-0.8-1.3c-0.3,0.6-0.7,1-0.9,1.6c-0.5,1-0.9,2-1.5,2.9c-0.3,0.6-0.6,1.2-0.6,1.9
	c0,0.4,0.1,0.5,0.5,0.6C268.2,193.3,269.5,193.5,270.9,193.7z"/>
</svg>
