<svg class="cities__background" viewBox="0 0 375 232" fill="none" xmlns="http://www.w3.org/2000/svg">
<rect class="cities__background-rectangle" y="184" height="48px" width="100%" fill="#FCF5E8"/>
<path d="M272.126 85.3424C259.824 83.9931 249.141 87.3815 240.28 97.5767C240.588 98.2663 240.871 98.896 241.025 99.2858C245.468 96.7071 249.783 93.9783 254.251 91.6395C259.362 88.9707 264.73 87.3215 270.38 87.2016C279.574 86.9917 286.406 91.6694 290.849 101.055C293.006 105.613 295.343 114.159 295.497 118.267C279.805 102.974 262.136 96.0474 241.641 100.845C241.924 100.965 242.181 101.115 242.463 101.235C245.751 102.584 248.909 104.234 251.529 106.992C255.099 110.77 256.126 115.448 254.354 120.696C253.635 122.855 252.556 124.864 251.58 127.113C254.303 129.542 256.101 133.02 257.564 136.738C257.693 136.738 257.796 136.768 257.924 136.768C258.078 136.228 258.232 135.689 258.386 135.119C259.259 131.97 259.85 128.612 261.109 125.673C263.548 120.006 267.837 118.207 272.974 120.216C274.258 120.726 275.491 121.415 276.749 122.165C269.173 124.234 263.035 128.522 259.105 136.408C259.182 136.558 259.259 136.678 259.337 136.828C259.67 136.558 260.03 136.318 260.338 135.989C263.471 132.63 266.836 129.632 270.791 127.712C274.977 125.673 279.163 125.194 283.195 128.192C286.919 130.951 288.948 135.239 290.772 140.157C284.582 136.378 278.341 134.459 271.664 134.729C267.914 134.879 264.293 135.749 260.8 137.668C261.134 137.698 261.468 137.698 261.802 137.758C263.497 138.058 265.218 138.147 266.836 138.717C270.2 139.917 271.613 142.795 271.125 146.933C270.996 147.893 270.765 148.852 270.483 150.232C268.608 144.804 265.886 140.816 261.494 138.627C261.442 138.747 261.365 138.867 261.391 138.897C264.91 144.954 266.451 151.851 267.452 158.928C269.147 170.982 269.096 183.096 268.454 195.241C268.325 197.579 267.426 198.509 265.398 198.539C264.961 198.539 264.55 198.599 264.113 198.569C261.468 198.419 260.107 196.32 260.646 193.321C262.162 184.775 263.086 176.17 263.009 167.444C262.932 159.437 262.11 151.611 259.259 144.205C258.669 142.675 257.898 141.236 257.128 139.587C253.275 143.275 251.606 147.983 251.195 153.41C246.495 149.212 248.781 142.735 256.28 138.717C255.073 138.507 253.866 138.237 252.633 138.118C244.852 137.368 237.738 139.737 231.137 144.474C230.392 145.014 230.29 145.704 230.264 146.603C229.725 163.006 231.266 179.228 233.962 195.3C234.142 196.38 234.348 197.459 234.527 198.539C235.118 201.867 233.68 205.016 230.932 206.215C228.518 207.295 226.026 207.115 223.587 206.545C221.455 206.035 220.659 203.906 220.505 201.568C219.529 186.005 219.375 170.442 220.376 154.85C221.07 144.235 222.225 133.68 224.588 123.364C226.437 115.268 228.903 107.472 233.166 100.605C233.243 100.515 233.243 100.335 233.346 100.006C225.128 104.054 220.068 111.16 216.961 120.756C215.651 116.588 214.906 112.57 215.959 108.402C216.986 104.323 219.606 102.015 222.867 100.575C225.898 99.2259 229.083 98.7761 232.319 98.7461C233.038 98.7461 233.731 98.7461 234.604 98.7461C231.189 95.3577 215.522 92.569 207.432 93.5286C198.11 94.638 189.326 97.6366 181.082 102.914C181.057 102.794 180.979 102.644 181.005 102.554C183.342 95.9574 186.27 89.7503 190.816 84.8327C197.339 77.816 204.915 76.5866 213.16 79.5851C220.274 82.1639 226.283 86.9916 231.908 92.539C233.218 93.8284 234.425 95.2378 235.734 96.5271C236.068 96.827 236.608 96.857 237.327 97.0969C231.882 84.7127 219.914 74.3376 205.326 71.369C205.686 71.0692 205.943 70.8293 206.2 70.6494C209.59 68.5803 213.108 66.9311 216.935 66.3914C223.612 65.4618 228.697 68.5803 232.396 74.9074C235.914 80.9045 237.481 87.7113 238.457 94.758C238.585 95.6875 238.559 96.7071 239.741 96.9769C240.152 95.9574 240.588 94.9079 241.051 93.8584C242.925 89.5704 245.057 85.4324 248.139 82.1939C249.731 80.5147 251.555 79.0154 253.481 77.9059C256.82 75.9868 260.287 76.3167 263.677 78.0259C266.913 79.6451 269.507 82.1639 272.126 85.3424ZM240.974 102.254C237.019 106.422 230.367 129.302 231.42 134.999C235.709 130.891 239.767 130.681 244.184 131.85C246.547 132.48 248.832 133.5 251.067 134.609C253.044 135.599 254.919 136.918 256.82 138.118C257.256 137.098 257.282 137.098 256.64 136.378C254.611 134.159 252.3 132.51 249.654 131.461C246.418 130.171 243.105 129.781 239.664 130.231C242.155 125.913 246.136 124.624 251.144 126.573C250.476 116.888 247.42 108.701 240.974 102.254Z" fill="#FBF5E9"/>
<path d="M140.789 170.614C147.228 170.614 153.667 170.628 160.106 170.614C163.304 170.614 165.92 171.784 167.924 174.309C168.223 174.68 168.578 174.851 169.061 174.837C169.672 174.823 170.284 174.823 170.895 174.837C171.591 174.865 171.989 175.251 171.989 175.95C172.004 176.977 172.004 178.004 171.989 179.046C171.975 179.816 171.591 180.216 170.81 180.216C169.758 180.23 168.706 180.187 167.668 180.23C167.043 180.258 166.787 180.044 166.687 179.402C166.361 177.291 165.38 175.579 163.432 174.523C160.732 173.068 157.334 173.767 155.501 176.221C154.79 177.177 154.335 178.275 154.221 179.474C154.165 180.03 153.909 180.216 153.369 180.216C147.271 180.201 141.187 180.201 135.089 180.216C134.279 180.216 134.265 179.716 134.151 179.16C133.625 176.52 132.175 174.68 129.517 173.952C127.115 173.296 124.457 174.209 122.993 176.235C122.296 177.191 121.841 178.289 121.728 179.488C121.671 180.016 121.429 180.23 120.917 180.187C120.704 180.173 120.477 180.201 120.264 180.187C119.866 180.173 119.254 180.415 119.141 179.845C119.041 179.288 118.757 178.575 119.468 178.118C119.695 177.976 119.581 177.762 119.581 177.59C119.595 175.593 119.581 173.596 119.581 171.612C119.581 170.685 119.652 170.614 120.605 170.614C127.342 170.614 134.066 170.614 140.789 170.614Z" fill="#FD0F15"/>
<path d="M170.937 172.231C170.952 170.419 170.937 168.592 170.937 166.78C170.937 166.039 170.923 165.282 170.696 164.569C169.871 161.887 168.564 159.447 167 157.15C165.593 155.081 163.901 153.341 161.528 152.356C159.253 151.4 156.908 150.815 154.477 150.516C150.597 150.031 146.688 149.988 142.139 150.002C136.581 150.045 130.412 150.616 124.258 151.358C121.457 151.7 119.524 153.74 119.581 156.793C119.652 160.517 119.595 164.241 119.595 167.965C119.595 169.192 119.595 169.192 120.775 169.192C133.867 169.192 146.972 169.192 160.064 169.192C161.94 169.192 163.745 169.52 165.451 170.347C166.787 170.989 167.981 171.831 168.933 172.958C169.417 173.515 169.985 173.486 170.539 173.358C171.136 173.215 170.937 172.644 170.937 172.231ZM131.123 160.446C131.123 161.63 131.109 162.814 131.137 163.984C131.152 164.598 130.938 164.854 130.299 164.854C127.882 164.84 125.466 164.84 123.035 164.854C122.396 164.854 122.197 164.583 122.211 163.984C122.225 161.573 122.225 159.176 122.211 156.765C122.211 156.151 122.41 155.895 123.049 155.895C125.466 155.909 127.882 155.909 130.313 155.895C130.953 155.895 131.152 156.151 131.137 156.765C131.109 157.992 131.123 159.219 131.123 160.446ZM142.125 163.956C142.125 164.755 142.026 164.84 141.201 164.854C140.007 164.854 138.799 164.854 137.605 164.854C136.425 164.854 135.245 164.84 134.08 164.869C133.469 164.883 133.213 164.669 133.213 164.027C133.227 161.601 133.227 159.176 133.213 156.736C133.213 156.094 133.469 155.895 134.08 155.895C136.482 155.909 138.87 155.895 141.272 155.909C142.026 155.909 142.125 156.023 142.125 156.808C142.125 159.176 142.125 161.573 142.125 163.956ZM152.331 164.854C149.886 164.84 147.441 164.84 145.011 164.854C144.456 164.854 144.215 164.655 144.215 164.084C144.229 161.616 144.229 159.133 144.215 156.665C144.215 156.094 144.47 155.895 145.011 155.895C147.455 155.909 149.9 155.909 152.331 155.895C152.928 155.895 153.141 156.151 153.127 156.736C153.099 157.935 153.127 159.147 153.127 160.346C153.127 161.573 153.113 162.8 153.127 164.027C153.155 164.598 152.942 164.854 152.331 164.854ZM167.469 164.84C165.564 164.84 163.674 164.84 161.769 164.84C159.893 164.84 158.017 164.84 156.14 164.84C155.316 164.84 155.216 164.74 155.216 163.941C155.216 161.559 155.216 159.162 155.216 156.779C155.216 156.009 155.33 155.88 156.084 155.895C157.889 155.952 159.708 155.709 161.499 156.037C163.333 156.365 164.754 157.364 165.735 158.962C166.687 160.503 167.54 162.101 168.194 163.799C168.493 164.583 168.322 164.84 167.469 164.84Z" fill="#FD0F15"/>
<path d="M127.982 175.85C125.75 175.85 123.718 178.19 123.774 180.258C123.831 182.541 125.693 184.424 127.968 184.424C130.27 184.424 132.161 182.527 132.161 180.201C132.246 178.161 130.199 175.85 127.982 175.85ZM127.968 182.313C126.831 182.313 125.892 181.357 125.892 180.216C125.892 179.074 126.816 178.118 127.968 178.104C129.105 178.09 130.057 179.017 130.086 180.173C130.086 181.343 129.133 182.327 127.968 182.313Z" fill="#FD0F15"/>
<path d="M160.49 175.85C158.244 175.835 156.212 178.175 156.268 180.23C156.325 182.513 158.173 184.41 160.447 184.41C162.764 184.424 164.655 182.527 164.669 180.216C164.74 178.175 162.693 175.864 160.49 175.85ZM160.518 182.313C159.353 182.341 158.386 181.371 158.386 180.201C158.386 179.06 159.324 178.118 160.462 178.104C161.599 178.104 162.551 179.031 162.565 180.173C162.58 181.328 161.656 182.284 160.518 182.313Z" fill="#FD0F15"/>
<path d="M367.34 184.184C362.787 184.184 358.714 184.247 354.641 184.121C353.922 184.121 353.023 183.052 352.604 182.298C350.926 179.342 349.129 176.387 347.931 173.243C346.014 168.275 342.42 165.76 337.927 164.187C328.882 161.043 320.016 161.358 311.27 165.382C308.035 166.829 305.579 169.092 304.081 172.551C302.943 175.129 301.266 177.456 300.427 180.097C299.289 183.807 297.133 184.687 293.718 184.373C290.783 184.058 287.788 184.31 284.373 184.31C286.35 180.6 288.147 177.141 290.064 173.746C293.179 168.149 296.474 162.678 299.529 157.082C300.188 155.887 300.667 154.126 300.308 152.994C299.289 149.724 300.966 149.787 303.123 149.85C316.601 149.913 330.08 149.85 343.558 149.85C344.577 149.85 345.535 149.85 346.553 149.85C351.046 149.85 350.986 149.85 351.286 154.441C351.346 155.635 351.885 156.83 352.484 157.899C357.037 166.011 361.649 174.06 366.262 182.109C366.502 182.486 366.801 183.052 367.34 184.184Z" fill="#FBF5E9"/>
<path d="M317.44 107.844C319.357 79.6098 321.274 51.3754 323.251 22.9523C324.808 22.9523 326.785 22.9523 328.462 22.9523C330.379 51.2496 332.296 79.4212 334.213 107.844C328.822 107.844 322.831 107.844 317.44 107.844Z" fill="#FBF5E9"/>
<path d="M343.738 141.864C340.743 141.864 338.047 141.99 335.411 141.738C334.693 141.675 333.734 140.48 333.494 139.6C332.536 135.764 331.697 131.928 331.098 128.03C330.859 126.395 330.32 125.892 328.822 125.955C326.366 126.017 323.85 125.955 321.094 125.955C319.956 131.237 318.878 136.456 317.74 141.675C314.385 141.675 311.33 141.675 307.855 141.675C308.994 138.091 310.132 134.695 311.15 131.237C312.049 128.03 312.708 124.76 313.786 121.616C314.085 120.735 315.343 119.666 316.182 119.666C322.772 119.478 329.361 119.54 335.891 119.666C336.609 119.666 337.748 120.484 337.987 121.238C339.904 127.904 341.701 134.632 343.738 141.864Z" fill="#FBF5E9"/>
<path d="M325.767 117.717C322.472 117.717 319.177 117.591 315.882 117.78C313.007 117.906 313.007 115.579 312.767 113.755C312.468 111.68 313.606 110.171 315.583 110.108C322.472 109.982 329.361 109.919 336.19 110.234C337.268 110.297 339.065 112.498 339.065 113.692C339.005 115.453 338.586 117.906 335.591 117.717C332.356 117.528 329.061 117.717 325.767 117.717Z" fill="#FBF5E9"/>
<path d="M350.567 144.819C351.046 147.272 349.609 147.335 348.111 147.335C343.019 147.335 337.927 147.335 332.895 147.335C323.131 147.335 313.367 147.272 303.602 147.335C302.045 147.335 300.727 147.209 301.146 144.819C317.62 144.819 334.093 144.819 350.567 144.819Z" fill="#FBF5E9"/>
<path d="M325.887 0C326.006 1.8236 326.066 3.20703 326.186 4.52757C326.366 6.79135 326.306 8.74072 328.223 10.8787C329.96 12.8281 329.9 16.6011 330.26 19.6195C330.32 20.1225 328.642 21.506 327.863 21.4431C325.467 21.2544 321.574 23.2667 321.394 18.6133C321.274 15.8465 322.053 12.3879 323.73 10.3757C325.168 8.67784 325.587 7.29442 325.647 5.28216C325.647 3.71009 325.767 2.01225 325.887 0Z" fill="#FBF5E9"/>
<path d="M351.106 186.448C357.995 186.448 364.944 186.448 371.833 186.448C371.833 186.636 371.833 186.825 371.833 187.076C364.944 187.076 358.055 187.076 351.106 187.076C351.166 186.888 351.106 186.699 351.106 186.448Z" fill="#FBF5E9"/>
<path d="M300.607 187.076C293.778 187.076 286.889 187.076 280.06 187.076C280.06 186.888 280.06 186.699 280 186.511C286.889 186.511 293.718 186.511 300.607 186.511C300.667 186.699 300.667 186.888 300.607 187.076Z" fill="#FBF5E9"/>
<path d="M280.287 154.893C280.533 155.104 280.79 155.275 280.971 155.51C281.123 155.703 281.205 155.962 281.299 156.203C281.585 156.949 281.527 157.718 281.515 158.5C281.503 159.298 281.638 160.097 281.72 160.896C281.737 161.078 281.79 161.26 281.848 161.437C282.047 162.024 281.842 162.564 281.269 162.805C280.638 163.064 280.036 163.005 279.498 162.476C279.568 162.87 279.632 163.228 279.697 163.587C279.954 165.067 279.749 166.488 279.2 167.869C279.106 168.11 278.972 168.35 278.802 168.544C278.662 168.709 278.621 168.867 278.621 169.067C278.627 169.419 278.609 169.772 278.598 170.124C278.563 171.035 278.82 171.828 279.44 172.521C279.808 172.932 280.2 173.349 280.287 173.931C280.328 174.189 280.322 174.454 280.34 174.718C280.375 175.282 280.398 175.852 280.439 176.416C280.48 177.026 280.223 177.502 279.755 177.855C279.656 177.931 279.451 177.978 279.34 177.925C278.937 177.743 278.51 176.885 278.598 176.451C278.633 176.269 278.72 176.075 278.843 175.934C279.328 175.358 279.311 174.412 278.785 173.878C278.703 173.796 278.609 173.719 278.528 173.643C278.235 173.373 277.914 173.12 277.662 172.815C277.411 172.509 277.224 172.151 277.002 171.81C276.838 172.11 276.645 172.427 276.493 172.756C276.452 172.838 276.51 172.997 276.569 173.091C277.007 173.796 277.458 174.495 277.896 175.2C278.007 175.382 278.095 175.581 278.2 175.764C278.528 176.339 278.452 176.932 278.27 177.526C278.2 177.761 278.042 177.902 277.785 177.931C277.662 177.943 277.539 177.978 277.417 178.013C276.99 178.143 276.698 178.002 276.51 177.596C276.446 177.455 276.265 177.361 276.218 177.22C276.166 177.05 276.136 176.821 276.206 176.668C276.651 175.728 276.557 175.211 275.762 174.53C275.68 174.459 275.598 174.395 275.505 174.313C275.125 174.83 274.733 175.317 274.4 175.84C274.306 175.993 274.353 176.263 274.388 176.463C274.546 177.35 274.751 178.225 274.891 179.112C275.166 180.856 275.096 182.601 274.757 184.334C274.575 185.25 274.499 186.196 274.283 187.106C274.119 187.794 273.845 188.457 273.57 189.109C273.213 189.967 273.014 190.836 273.178 191.765C273.248 192.164 273.389 192.27 273.786 192.299C275.066 192.393 276.353 192.469 277.633 192.569C278.019 192.599 278.416 192.634 278.779 192.751C279.071 192.845 279.323 193.069 279.592 193.239C279.779 193.362 279.966 193.48 280.135 193.627C280.34 193.797 280.539 193.985 280.714 194.185C280.767 194.249 280.778 194.396 280.743 194.478C280.72 194.531 280.568 194.543 280.48 194.537C279.708 194.461 278.937 194.379 278.276 194.314C278.007 194.449 277.832 194.602 277.639 194.631C276.493 194.784 275.365 194.643 274.265 194.308C273.693 194.132 273.476 194.079 272.757 194.155C272.985 194.39 273.196 194.596 273.394 194.807C273.546 194.972 273.698 195.136 273.821 195.318C273.874 195.401 273.897 195.553 273.856 195.641C273.833 195.694 273.669 195.706 273.57 195.7C272.804 195.671 272.038 195.636 271.255 195.6C271.179 195.953 270.863 195.959 270.582 195.976C269.565 196.053 268.548 195.959 267.577 195.647C266.876 195.424 266.203 195.43 265.508 195.536C265.192 195.583 264.87 195.618 264.549 195.618C263.789 195.618 263.426 195.307 263.438 194.543C263.45 193.803 263.479 193.045 263.637 192.328C263.912 191.077 263.748 189.861 263.59 188.628C263.467 187.688 262.877 187.03 262.374 186.261C262.017 186.801 261.678 187.324 261.327 187.841C260.398 189.209 259.41 190.531 258.235 191.694C256.756 193.157 255.072 194.279 252.99 194.631C252.026 194.796 251.038 194.86 250.056 194.872C247.162 194.907 244.273 194.895 241.379 194.907C240.503 194.913 239.626 194.925 238.749 194.937C238.585 194.937 238.415 194.942 238.252 194.913C238.158 194.895 238.006 194.813 238.006 194.76C238.006 194.666 238.076 194.519 238.158 194.478C238.474 194.332 238.795 194.173 239.134 194.108C242.619 193.48 246.109 192.869 249.594 192.258C251.581 191.911 253.248 190.942 254.698 189.585C256.697 187.711 258.03 185.45 258.55 182.73C258.732 181.79 258.737 180.845 258.667 179.893C258.58 178.695 258.504 177.49 258.679 176.292C259.012 174.019 259.907 171.981 261.24 170.13C262.427 168.486 263.964 167.246 265.788 166.359C266.946 165.795 268.086 165.202 269.086 164.374C269.501 164.033 269.887 163.663 270.307 163.328C271.126 162.676 272.067 162.241 273.049 161.912C274.464 161.437 275.166 160.426 275.347 158.993C275.388 158.646 275.417 158.294 275.406 157.947C275.382 157.301 275.464 156.684 275.715 156.085C275.815 155.844 275.803 155.557 275.838 155.316C274.312 154.582 273.716 153.277 273.5 151.756C273.435 151.31 273.494 150.84 273.564 150.387C273.622 150.011 273.845 149.953 274.102 150.235C274.751 150.951 275.528 151.498 276.312 152.05C277.054 152.573 277.463 153.33 277.633 154.223C277.715 154.646 277.767 154.687 278.118 154.681C278.428 154.676 278.574 154.558 278.609 154.182C278.726 152.907 279.422 151.968 280.305 151.128C280.673 150.781 281.059 150.446 281.457 150.135C281.796 149.876 282 149.976 282 150.411C282 150.775 281.959 151.151 281.877 151.509C281.766 152.02 281.585 152.52 281.468 153.037C281.34 153.601 281.065 154.065 280.661 154.47C280.539 154.605 280.416 154.746 280.287 154.893ZM270.915 193.685C270.752 193.086 270.951 192.558 271.062 192.011C271.138 191.653 271.243 191.277 271.202 190.919C271.068 189.726 270.693 188.593 270.22 187.494C270.033 187.054 269.711 186.672 269.425 186.225C269.091 186.777 268.746 187.259 268.501 187.788C268.045 188.769 267.595 189.75 267.039 190.684C266.7 191.248 266.461 191.882 266.461 192.569C266.461 192.928 266.595 193.086 266.922 193.127C268.238 193.315 269.547 193.492 270.915 193.685Z" fill="#F9EBD1"/>
<path d="M14.6252 183.913C14.6252 182.852 14.6252 181.892 14.6252 180.78C15.6636 180.78 16.7021 180.78 17.7912 180.78C17.7912 174.487 17.7912 168.371 17.7912 162.154C13.5868 162.786 10.2688 161.093 7.38145 158.313C5.70981 156.695 4.9753 155.154 5.00063 153.435C6.82423 153.435 8.67316 153.536 10.5221 153.41C13.9667 153.157 17.2593 152.298 20.324 150.731C20.9571 150.403 21.565 150.024 22.1729 149.644C23.6672 148.709 24.4777 147.547 24.3511 145.626C24.1485 142.998 24.3004 140.319 24.3004 137.666C24.3004 137.211 24.3004 136.756 24.3004 136.276C20.02 136.983 15.4863 134.456 14.6759 130.943C15.4104 131.12 16.0689 131.297 16.7781 131.423C21.2104 132.257 25.2122 130.994 29.0367 128.947C35.4953 125.484 40.6115 120.43 45.3225 114.921C45.8544 114.314 46.3356 113.682 46.8675 113.076C46.8928 113.051 46.9435 113.051 47.0195 113C48.7417 114.921 50.4134 116.892 52.2117 118.787C55.5549 122.325 59.1768 125.535 63.3812 128.012C68.2948 130.918 73.4364 132.788 79.2617 130.893C79.0085 134.127 74.1202 136.907 69.7132 136.276C69.7132 138.095 69.7132 139.889 69.7132 141.684C69.7132 143.251 69.7891 144.792 69.6878 146.359C69.6119 147.446 70.0424 148.179 70.8529 148.836C73.9176 151.338 77.5395 152.551 81.3893 153.107C83.8714 153.461 86.4042 153.511 88.9623 153.688C89.5955 157.706 82.1238 162.836 76.2731 162.104C76.2731 168.27 76.2731 174.411 76.2731 180.704C77.3115 180.704 78.2993 180.704 79.3631 180.704C79.3631 181.816 79.3631 182.801 79.3631 183.888C57.8091 183.913 36.2805 183.913 14.6252 183.913ZM59.8607 180.704C59.8607 174.209 59.8607 167.815 59.8607 161.447C51.2239 161.447 42.6884 161.447 34.1529 161.447C34.1529 167.916 34.1529 174.31 34.1529 180.704C42.7644 180.704 51.2745 180.704 59.8607 180.704ZM37.3949 135.543C37.3949 139.864 37.3949 144.11 37.3949 148.33C43.8535 148.33 50.2108 148.33 56.6187 148.33C56.6187 144.034 56.6187 139.814 56.6187 135.543C50.2108 135.543 43.8535 135.543 37.3949 135.543ZM27.6184 135.543C27.6184 139.839 27.6184 144.034 27.6184 148.33C29.7712 148.33 31.8481 148.33 34.001 148.33C34.001 144.034 34.001 139.814 34.001 135.543C31.8228 135.543 29.7459 135.543 27.6184 135.543ZM66.4206 135.543C64.2677 135.543 62.1908 135.543 60.0379 135.543C60.0379 139.839 60.0379 144.034 60.0379 148.33C62.1908 148.33 64.2677 148.33 66.4206 148.33C66.4206 144.085 66.4206 139.889 66.4206 135.543Z" fill="#FBF5E9"/>
</svg>
