<svg height='32px' width='32px'  fill="#fd0f15" xmlns="http://www.w3.org/2000/svg" xmlns:xlink="http://www.w3.org/1999/xlink" version="1.1" x="0px" y="0px" viewBox="0 0 98 98" style="enable-background:new 0 0 98 98;" xml:space="preserve"><title>27</title><path d="M85,31.8l-10.4-11c-1.1-1.2-2.7-1.9-4.3-1.9H49v-7c0-3.3-2.7-6-6-6h-3c-3.3,0-6,2.7-6,6v7H17.4c-3.3,0-6,2.7-6,6v22  c0,3.3,2.7,6,6,6H34v33.2c0,3.3,2.7,6,6,6h3c3.3,0,6-2.7,6-6V52.9h21.3c1.6,0,3.2-0.7,4.3-1.9L85,40C87.1,37.7,87.1,34.1,85,31.8z   M36,11.9c0-2.2,1.8-4,4-4h3c2.2,0,4,1.8,4,4v7H36V11.9z M47,86.1c0,2.2-1.8,4-4,4h-3c-2.2,0-4-1.8-4-4V52.9h11V86.1z M83.5,38.6  l-10.3,11c-0.8,0.8-1.8,1.3-2.9,1.3H17.4c-2.2,0-4-1.8-4-4v-22c0-2.2,1.8-4,4-4h52.9c1.1,0,2.1,0.4,2.9,1.2l10.3,11  C84.9,34.7,84.9,37,83.5,38.6z"></path></svg>
