<svg height='32px' width='32px'  fill="#fd0f15" xmlns="http://www.w3.org/2000/svg" viewBox="0 0 100 100" x="0px" y="0px"><path d="M49.22,92.44A41.49,41.49,0,0,1,7.78,51c0-23,19-42.44,41.44-42.44S90.66,28,90.66,51A41.49,41.49,0,0,1,49.22,92.44Zm0-80.88C28.38,11.56,10.78,29.62,10.78,51a38.44,38.44,0,0,0,76.88,0C87.66,29.62,70.06,11.56,49.22,11.56Z"></path><path d="M28.45,57.46,25.17,47.08h2.67l1.94,6.8,1.79-6.8h2.65l1.72,6.8,2-6.8h2.7L37.3,57.46H34.66l-1.78-6.67-1.76,6.67Z"></path><path d="M44.81,57.46,41.53,47.08h2.66l2,6.8,1.79-6.8h2.64l1.73,6.8,2-6.8H57L53.66,57.46H51l-1.79-6.67-1.75,6.67Z"></path><path d="M61.17,57.46,57.89,47.08h2.66l2,6.8,1.78-6.8h2.65l1.73,6.8,2-6.8h2.7L70,57.46H67.38l-1.79-6.67-1.76,6.67Z"></path></svg>
