<svg class="details-icon details-icon--primary" viewBox="0 0 100 100" xmlns="http://www.w3.org/2000/svg"><path d="M49.22 92.44A41.49 41.49 0 017.78 51c0-23 19-42.44 41.44-42.44S90.66 28 90.66 51a41.49 41.49 0 01-41.44 41.44zm0-80.88c-20.84 0-38.44 18.06-38.44 39.44a38.44 38.44 0 0076.88 0c0-21.38-17.6-39.44-38.44-39.44z"/><path d="M28.45 57.46l-3.28-10.38h2.67l1.94 6.8 1.79-6.8h2.65l1.72 6.8 2-6.8h2.7L37.3 57.46h-2.64l-1.78-6.67-1.76 6.67zM44.81 57.46l-3.28-10.38h2.66l2 6.8 1.79-6.8h2.64l1.73 6.8 2-6.8H57l-3.34 10.38H51l-1.79-6.67-1.75 6.67zM61.17 57.46l-3.28-10.38h2.66l2 6.8 1.78-6.8h2.65l1.73 6.8 2-6.8h2.7L70 57.46h-2.62l-1.79-6.67-1.76 6.67z"/></svg>
