<svg xmlns="http://www.w3.org/2000/svg" viewBox="0 0 32 32"><path fill="none" d="M0 0h32v32H0z"/><path d="M16 25c-4.962 0-9-4.038-9-9s4.038-9 9-9 9 4.038 9 9-4.038 9-9 9zm0-16c-3.86 0-7 3.14-7 7s3.14 7 7 7 7-3.14 7-7-3.14-7-7-7zM16 5a1 1 0 01-1-1V2a1 1 0 012 0v2a1 1 0 01-1 1zM16 31a1 1 0 01-1-1v-2a1 1 0 012 0v2a1 1 0 01-1 1zM24.485 8.515a.999.999 0 01-.707-1.707l1.414-1.414a.999.999 0 111.414 1.414l-1.414 1.414a.997.997 0 01-.707.293zM6.101 26.899a.999.999 0 01-.707-1.707l1.414-1.414a.999.999 0 111.414 1.414l-1.414 1.414a.996.996 0 01-.707.293zM30 17h-2a1 1 0 010-2h2a1 1 0 010 2zM4 17H2a1 1 0 010-2h2a1 1 0 010 2zM25.899 26.899a.997.997 0 01-.707-.293l-1.414-1.414a.999.999 0 111.414-1.414l1.414 1.414a.999.999 0 01-.707 1.707zM7.515 8.515a.997.997 0 01-.707-.293L5.394 6.808a.999.999 0 111.414-1.414l1.414 1.414a.999.999 0 01-.707 1.707z"/></svg>