<svg class="icon" viewBox="0 0 98 98" stroke="#FD0f15" xmlns="http://www.w3.org/2000/svg"><path d="M85 31.8l-10.4-11c-1.1-1.2-2.7-1.9-4.3-1.9H49v-7c0-3.3-2.7-6-6-6h-3c-3.3 0-6 2.7-6 6v7H17.4c-3.3 0-6 2.7-6 6v22c0 3.3 2.7 6 6 6H34v33.2c0 3.3 2.7 6 6 6h3c3.3 0 6-2.7 6-6V52.9h21.3c1.6 0 3.2-.7 4.3-1.9L85 40c2.1-2.3 2.1-5.9 0-8.2zM36 11.9c0-2.2 1.8-4 4-4h3c2.2 0 4 1.8 4 4v7H36v-7zm11 74.2c0 2.2-1.8 4-4 4h-3c-2.2 0-4-1.8-4-4V52.9h11v33.2zm36.5-47.5l-10.3 11c-.8.8-1.8 1.3-2.9 1.3H17.4c-2.2 0-4-1.8-4-4v-22c0-2.2 1.8-4 4-4h52.9c1.1 0 2.1.4 2.9 1.2l10.3 11c1.4 1.6 1.4 3.9 0 5.5z"/></svg>
