<svg xmlns="http://www.w3.org/2000/svg" viewBox="0 0 100 100"><path d="M94.03 72.144c-.921-1.417-2.55-2.196-4.25-1.842-9.066 1.63-17.636.354-26.206-3.966-13.528-6.799-22.877-19.902-24.365-34.067-.85-8.216.567-16.432 4.25-23.798.708-1.559.496-3.33-.567-4.604-1.133-1.204-2.762-1.7-4.32-1.133-23.019 7.65-36.688 30.738-32.51 54.749 3.47 19.973 19.832 36.192 39.876 39.38 2.691.424 5.383.637 8.074.637 15.865 0 30.668-7.578 39.946-20.894.921-1.346.992-3.116.071-4.462zM46.787 91.62C28.94 88.788 14.349 74.34 11.303 56.633 7.763 36.163 18.67 16.474 37.44 8.754c-3.187 7.579-4.392 15.865-3.542 24.081.85 7.933 3.896 15.582 8.641 22.24a51.165 51.165 0 0018.628 16.007c8.57 4.32 17.494 5.949 26.63 4.886-9.774 12.254-25.214 18.203-41.008 15.653z"/></svg>