<svg class="icon" viewBox="0 0 32 32" xmlns="http://www.w3.org/2000/svg"><path d="M21.193 23.268l-4.438-2.193c-.472-.237-1.206-.215-1.669.051l-1.074.623c-.208.119-.556.057-.703-.125l-.104-.131c-.618-.771-1.388-1.729-1.976-2.748-.595-1.03-1.063-2.235-1.404-3.115l-.049-.126c-.088-.227.027-.547.242-.671l1.077-.621c.466-.27.844-.878.879-1.415l.319-4.944c.045-.703-.453-1.397-1.134-1.58L9.09 5.717c-1.036-.275-2.604.694-3.633 1.51-.252.2-.537.557-.691.892-.665 1.447-2.689 5.849 1.666 13.393 4.354 7.543 9.178 7.992 10.835 8.147l.143.006c.289 0 .652-.065.906-.165 1.268-.502 2.836-1.324 3.123-2.396l.555-2.065c.182-.682-.169-1.459-.801-1.771zm-.166 1.511l-.555 2.066c-.131.491-1.123 1.168-2.521 1.723a1.76 1.76 0 01-.542.097l-.121-.009c-1.458-.137-5.896-.551-9.991-7.646C3.202 13.916 5.063 9.867 5.703 8.474c.061-.132.247-.362.376-.465 1.063-.842 2.03-1.345 2.589-1.345.062 0 .117.006.164.019l2.068.554c.221.06.41.322.395.55l-.319 4.943c-.013.207-.203.511-.381.614l-1.077.621c-.646.374-.942 1.208-.674 1.899l.049.126c.353.91.836 2.156 1.47 3.253.626 1.085 1.456 2.118 2.062 2.874l.105.132c.448.554 1.354.724 1.981.364l1.074-.623c.169-.098.548-.109.724-.021l4.44 2.194c.205.103.338.396.278.616zM15.919 10.706a7.014 7.014 0 014.636 8.03.499.499 0 00.491.6.503.503 0 00.49-.4 8.018 8.018 0 00-5.298-9.178.5.5 0 00-.319.948z"/><path d="M17.219 6.048a.498.498 0 00-.626.328.498.498 0 00.328.626c5.345 1.669 8.568 7.255 7.341 12.717a.5.5 0 10.974.219c1.342-5.966-2.179-12.067-8.017-13.89z"/><path d="M18.206 2.342a.499.499 0 00-.623.335.499.499 0 00.335.623c7.41 2.229 11.824 9.875 10.05 17.406a.5.5 0 00.973.23c1.895-8.045-2.82-16.212-10.735-18.594z"/></svg>
