<svg xmlns="http://www.w3.org/2000/svg" xmlns:xlink="http://www.w3.org/1999/xlink" width="48" height="48" viewBox="0 0 100 100"><circle fill="#fd0f15" r="48%" cx="50%" cy="50%"/><svg xmlns="http://www.w3.org/2000/svg" viewBox="0 0 32 32" transform="matrix(.69 0 0 .69 15.5 15.5)" fill="#fff"><path d="M16 0C7.163 0 0 7.163 0 16s7.163 16 16 16 16-7.163 16-16S24.837 0 16 0zm13.949 15h-2A11.987 11.987 0 0017 4.051v-2C23.921 2.543 29.457 8.079 29.949 15zM16 27a10.96 10.96 0 01-7.773-3.225l6.829-3.902c1.311.318 2.749-.021 3.772-1.045s1.363-2.462 1.045-3.772l3.902-6.828A10.954 10.954 0 0127 16c0 6.065-4.936 11-11 11zm0-22c3.032 0 5.781 1.233 7.773 3.225l-6.83 3.902a3.98 3.98 0 00-3.771 1.045 3.984 3.984 0 00-1.045 3.772l-3.902 6.828A10.958 10.958 0 015 16C5 9.935 9.935 5 16 5zm1.414 12.414a2 2 0 11-2.828-2.828 2 2 0 012.828 2.828zM15 2.051v2A11.987 11.987 0 004.051 15h-2C2.543 8.079 8.079 2.543 15 2.051zM2.051 17h2A11.987 11.987 0 0015 27.949v2C8.079 29.457 2.543 23.921 2.051 17zM17 29.949v-2A11.987 11.987 0 0027.949 17h2C29.457 23.921 23.921 29.457 17 29.949z"/></svg></svg>
