<svg xmlns="http://www.w3.org/2000/svg" xmlns:xlink="http://www.w3.org/1999/xlink" width="48" height="48"><circle fill="#fd0f15" r="48%" cx="50%" cy="50%"/><svg xmlns="http://www.w3.org/2000/svg" data-name="Layer 1" viewBox="0 0 128 128" transform="matrix(.69 0 0 .69 15.5 15.5)" fill="#fff"><path d="M120.886 93.277A63.984 63.984 0 10.056 61.775a1.994 1.994 0 00-.02.769C.027 63.03 0 63.512 0 64a63.634 63.634 0 0014.077 39.97l-12.643 3.737a2 2 0 00-1.352 2.484 2.027 2.027 0 002.484 1.352l38.597-11.407c16.862-4.933 21.663-8.532 22.696-11.404 2.168 1.374 2.574 2.56 2.598 3.206.27 7.262-28.519 19.445-49.046 25.776a2 2 0 00-1.322 2.5 2.024 2.024 0 002.5 1.322c8.745-2.696 52.346-16.803 51.865-29.747-.13-3.542-3.11-6.391-9.077-8.637a16.382 16.382 0 00-2.84-1.47c3.7.068 6.549.185 7.913.265 7.93.463 15.732.978 23.29 3.58 5.772 1.988 12.325 4.817 16.112 9.834a10.66 10.66 0 011.87 3.735c1.379 5.364-2.383 11.75-11.178 18.984a2 2 0 002.54 3.09c10.103-8.309 14.312-16.072 12.512-23.074-.987-3.833-3.693-6.96-7.082-9.478 8.25 2.994 14.051 6.87 17.033 11.513 3.03 4.718 3.264 10.191.72 16.735a2 2 0 003.729 1.45c2.998-7.712 2.634-14.558-1.084-20.346a23.74 23.74 0 00-4.026-4.693zm-3.17-2.524c-12.392-8.663-33.68-11.787-51.033-12.8-3.41-.198-15.892-.627-28.097 0a2.038 2.038 0 00-1.81 2.468 1.972 1.972 0 001.515 1.49l15.01 3.04a53.525 53.525 0 016.539 1.883.952.952 0 01.256.422c-.001.031-.276 3.253-20.06 9.042l-21.818 6.448A59.7 59.7 0 014 64c0-.269.017-.534.02-.802l9.31-6.924 5.554 1.998a2.001 2.001 0 001.353 0l4.886-1.756 4.883 1.756a1.998 1.998 0 001.353 0l4.888-1.757 4.892 1.757a2 2 0 001.351 0l4.533-1.627 19.034 16.852a2 2 0 002.652-2.994l-6.513-5.766 9.642-7.252 4.3 1.757a2 2 0 001.513 0l4.137-1.691 4.137 1.69a1.998 1.998 0 001.512 0l4.143-1.69 4.146 1.69a1.999 1.999 0 001.511 0l4-1.631 14.84 10.121a2 2 0 102.253-3.304L86.803 42.922a2 2 0 00-2.33.055L59.14 62.03 32.849 38.752a2.002 2.002 0 00-2.52-.107L4.3 58.005a60.002 60.002 0 11113.416 32.748zM17.181 53.41l14.231-10.585 12.195 10.797-1.794.644-4.891-1.757a1.998 1.998 0 00-1.353 0l-4.887 1.757-4.883-1.757a2.001 2.001 0 00-1.354 0l-4.885 1.757zm58.38 1.276l10.17-7.65 11.542 7.872-.793.323-4.145-1.691a1.996 1.996 0 00-1.512 0l-4.142 1.69-4.137-1.69a2 2 0 00-1.514 0l-4.136 1.69z"/><path d="M73.549 85.157a2 2 0 00-1.532-2.378c-1.257-.271-2.093-.383-2.128-.387a2 2 0 00-.522 3.965c.007.001.722.098 1.804.332a2.04 2.04 0 00.425.045 2.001 2.001 0 001.953-1.577zM83.793 97.519a1.998 1.998 0 00-2.704.83 19.943 19.943 0 01-2.273 3.311 2 2 0 103.08 2.55 23.924 23.924 0 002.728-3.987 2.001 2.001 0 00-.831-2.704zM68.92 113.033a2 2 0 002.799.408 91.74 91.74 0 003.568-2.795 2 2 0 00-2.55-3.082 85.944 85.944 0 01-3.409 2.67 2 2 0 00-.408 2.8zM84.723 89.785a12.49 12.49 0 00-3.81-3.598 2 2 0 00-2.146 3.375 8.56 8.56 0 012.612 2.418 2 2 0 103.344-2.195zM61.502 119.958a1.99 1.99 0 001.06-.306q.874-.548 1.709-1.083a2 2 0 00-2.16-3.367q-.818.526-1.673 1.062a2 2 0 001.064 3.694zM80.973 13.954a11.75 11.75 0 00-5.617-1.794 6.036 6.036 0 00-3.385.987l-5.797 3.894-8.824-5.363a4 4 0 00-5.398 5.648l4.529 6.744-2.388 1.855a8.072 8.072 0 00-5.987 1.238 4 4 0 00-1.09 5.55l5.588 8.32a4 4 0 005.55 1.091 8.069 8.069 0 003.414-5.075l2.618-1.507 4.529 6.744a4 4 0 007.27-2.86L74.36 29.228l5.797-3.893c1.21-.812 2.681-2.491 2.82-5.876a14.414 14.414 0 00-.161-2.763 4 4 0 00-1.842-2.742zm-1.994 5.341a3.417 3.417 0 01-1.053 2.72l-7.92 5.318 2.03 12.722-6.61-9.842-7.765 4.47a4.058 4.058 0 01-1.737 4.12l-5.588-8.32a4.072 4.072 0 013.039-.623 3.957 3.957 0 011.432.575l7.076-5.497-6.61-9.842 11.008 6.69 7.92-5.318a2.04 2.04 0 011.155-.308 8.317 8.317 0 013.514 1.196 10.57 10.57 0 01.109 1.94z"/></svg></svg>
