<svg width="48px" height="48px" viewBox="0 0 48 48" version="1.1" xmlns="http://www.w3.org/2000/svg" xmlns:xlink="http://www.w3.org/1999/xlink">
  <g id="Page-1" stroke="none" stroke-width="1" fill="none" fill-rule="evenodd">
    <g id="Navbar" transform="translate(-29.000000, -32.000000)">
      <g id="logo" transform="translate(29.000000, 32.000000)">
        <ellipse id="Oval" fill="#FD1015" cx="23.6485952" cy="23.6226931" rx="23.6485952" ry="23.6226931"></ellipse>
        <g id="wagon" transform="translate(9.687376, 13.376706)" fill="#FFFFFF">
          <path d="M1.43617872,16.2228133 C1.43617872,16.3799995 1.30861443,16.5074241 1.15125589,16.5074241 C1.1473825,16.5074241 1.14352716,16.5073469 1.13969133,16.5071939 L0.284922833,16.5074241 C0.127564298,16.5074241 1.92708627e-17,16.3799995 0,16.2228133 L0,15.6535918 C-1.92708627e-17,15.4964056 0.127564298,15.3689811 0.284922833,15.3689811 L0.28492214,11.6690412 C0.284922833,11.511855 0.412487131,11.3844304 0.569845667,11.3844304 L22.5119505,11.3844304 C24.0348171,11.3844304 25.402566,12.0478402 26.3413608,13.1011229 C26.4120894,13.180477 26.5010291,13.2914125 26.6081799,13.4339295 C26.715814,13.5770895 26.884604,13.6613231 27.063838,13.6613165 L27.3635479,13.6613165 C27.5745672,13.6613165 27.8564598,13.6613175 28.2092256,13.6613195 C28.523085,13.662324 28.7772062,13.9167869 28.7772062,14.230538 L28.7772062,15.9382026 C28.7772062,16.2525749 28.5220776,16.5074241 28.2073605,16.5074241 L26.2129007,16.5074241 C26.2091079,16.5073486 26.205296,16.5074241 26.2014665,16.5074241 C26.044108,16.5074241 25.9165437,16.3799995 25.9165437,16.2228133 C25.7714912,14.4697447 24.3012576,13.092095 22.5089038,13.092095 C20.7165501,13.092095 19.2463165,14.4697447 19.1015327,16.2228133 C19.1014596,16.3799995 18.9738953,16.5074241 18.8165368,16.5074241 C18.8126414,16.5074241 18.8087643,16.507346 18.804907,16.5071913 L8.547685,16.5074241 C8.39032647,16.5074241 8.26276217,16.3799995 8.26276217,16.2228133 L8.25105931,16.2228133 C8.10627552,14.4697447 6.63604191,13.092095 4.84368817,13.092095 C3.05133442,13.092095 1.58110082,14.4697447 1.43631702,16.2228133 Z M28.2073605,12.2382627 C28.2073605,12.3954489 28.0797962,12.5228734 27.9224377,12.5228734 L27.4744513,12.5228734 C27.3931103,12.5228734 27.3156471,12.4881474 27.2615866,12.4274371 C27.074665,12.2175799 26.9266867,12.0611146 26.8176516,11.9580413 C25.6950333,10.8968052 24.1795786,10.2459874 22.5119505,10.2459874 L0.569845667,10.2459874 C0.412487131,10.2459874 0.284922833,10.1185628 0.284922833,9.96137661 L0.284920578,3.34021324 C0.284921652,2.06293378 1.22693522,0.980841726 2.49323343,0.803521768 C6.31870306,0.267840589 9.92016013,-5.43510998e-14 13.2976046,-5.68e-14 C19.3278684,-6.01059556e-14 21.6724451,0.479455309 23.933518,1.70766456 C25.3103662,2.45556511 26.6181607,4.26164912 27.8569015,7.1259166 C28.0880958,7.66049222 28.2073605,8.23666301 28.2073605,8.81899011 L28.2073605,12.2382627 Z M0.284921926,10.5305981 L0.284922833,10.5305981 L0.284922833,11.0998196 L0.284922033,11.0998196 L0.284921926,10.5305981 Z M1.99445983,3.13071836 C1.8371013,3.13071836 1.709537,3.25814294 1.709537,3.41532912 L1.709537,7.68449053 C1.709537,7.84167671 1.8371013,7.96910129 1.99445983,7.96910129 L6.26830233,7.96910129 C6.42566087,7.96910129 6.55322517,7.84167671 6.55322517,7.68449053 L6.55322517,3.41532912 C6.55322517,3.25814294 6.42566087,3.13071836 6.26830233,3.13071836 L1.99445983,3.13071836 Z M13.9612188,3.13071836 C13.8038603,3.13071836 13.676296,3.25814294 13.676296,3.41532912 L13.676296,7.68449053 C13.676296,7.84167671 13.8038603,7.96910129 13.9612188,7.96910129 L18.2350613,7.96910129 C18.3924199,7.96910129 18.5199842,7.84167671 18.5199842,7.68449053 L18.5199842,3.41532912 C18.5199842,3.25814294 18.3924199,3.13071836 18.2350613,3.13071836 L13.9612188,3.13071836 Z M7.97783934,3.13071836 C7.8204808,3.13071836 7.6929165,3.25814294 7.6929165,3.41532912 L7.6929165,7.68449053 C7.6929165,7.84167671 7.8204808,7.96910129 7.97783934,7.96910129 L12.2516818,7.96910129 C12.4090404,7.96910129 12.5366047,7.84167671 12.5366047,7.68449053 L12.5366047,3.41532912 C12.5366047,3.25814294 12.4090404,3.13071836 12.2516818,3.13071836 L7.97783934,3.13071836 Z M19.9445932,3.13071813 C19.7872347,3.13071813 19.6596704,3.25814271 19.6596704,3.41532889 L19.6596705,7.68449053 C19.6596705,7.84167671 19.7872348,7.96910129 19.9445934,7.96910129 L26.5149322,7.96910129 C26.5498458,7.96910129 26.5844621,7.96269125 26.6170559,7.95019064 C26.7639546,7.89385101 26.8373171,7.72922424 26.7809157,7.58248646 C26.4686531,6.77006069 26.1077279,6.02285416 25.6981475,5.34086405 C25.636586,5.23835829 25.5799839,5.13673253 25.5283449,5.035985 C24.9288401,3.86645363 23.7242206,3.13072013 22.4088459,3.13071948 L19.9445934,3.13071827 Z M4.84368817,18.7843102 C3.58481988,18.7843102 2.5643055,17.7649136 2.5643055,16.5074241 C2.5643055,15.2499346 3.58481988,14.230538 4.84368817,14.230538 C6.10255645,14.230538 7.12307083,15.2499346 7.12307083,16.5074241 C7.12307083,17.7649136 6.10255645,18.7843102 4.84368817,18.7843102 Z M4.84368817,17.6458671 C5.47312231,17.6458671 5.9833795,17.1361688 5.9833795,16.5074241 C5.9833795,15.8786794 5.47312231,15.3689811 4.84368817,15.3689811 C4.21425402,15.3689811 3.70399683,15.8786794 3.70399683,16.5074241 C3.70399683,17.1361688 4.21425402,17.6458671 4.84368817,17.6458671 Z M22.5089038,18.7843102 C21.2500356,18.7843102 20.2295212,17.7649136 20.2295212,16.5074241 C20.2295212,15.2499346 21.2500356,14.230538 22.5089038,14.230538 C23.7677721,14.230538 24.7882865,15.2499346 24.7882865,16.5074241 C24.7882865,17.7649136 23.7677721,18.7843102 22.5089038,18.7843102 Z M22.5089038,17.6458671 C23.138338,17.6458671 23.6485952,17.1361688 23.6485952,16.5074241 C23.6485952,15.8786794 23.138338,15.3689811 22.5089038,15.3689811 C21.8794697,15.3689811 21.3692125,15.8786794 21.3692125,16.5074241 C21.3692125,17.1361688 21.8794697,17.6458671 22.5089038,17.6458671 Z" id="Combined-Shape"></path>
        </g>
      </g>
    </g>
  </g>
</svg>
