<svg viewBox="0 0 375 232" xmlns="http://www.w3.org/2000/svg">
<rect class="rectangle" y="184"/>
<path class="palm-tree" d="M272.126 85.342c-12.302-1.349-22.985 2.04-31.846 12.235.308.69.591 1.319.745 1.709 4.443-2.579 8.758-5.308 13.226-7.647 5.111-2.668 10.479-4.317 16.129-4.437 9.194-.21 16.026 4.467 20.469 13.853 2.157 4.558 4.494 13.104 4.648 17.212-15.692-15.293-33.361-22.22-53.856-17.422.283.12.54.27.822.39 3.288 1.349 6.446 2.999 9.066 5.757 3.57 3.778 4.597 8.456 2.825 13.704-.719 2.159-1.798 4.168-2.774 6.417 2.723 2.429 4.521 5.907 5.984 9.625.129 0 .232.03.36.03.154-.54.308-1.079.462-1.649.873-3.149 1.464-6.507 2.723-9.446 2.439-5.667 6.728-7.466 11.865-5.457 1.284.51 2.517 1.199 3.775 1.949-7.576 2.069-13.714 6.357-17.644 14.243.077.15.154.27.232.42.333-.27.693-.51 1.001-.839 3.133-3.359 6.498-6.357 10.453-8.277 4.186-2.039 8.372-2.518 12.404.48 3.724 2.759 5.753 7.047 7.577 11.965-6.19-3.779-12.431-5.698-19.108-5.428-3.75.15-7.371 1.02-10.864 2.939.334.03.668.03 1.002.09 1.695.3 3.416.389 5.034.959 3.364 1.2 4.777 4.078 4.289 8.216-.129.96-.36 1.919-.642 3.299-1.875-5.428-4.597-9.416-8.989-11.605-.052.12-.129.24-.103.27 3.519 6.057 5.06 12.954 6.061 20.031 1.695 12.054 1.644 24.168 1.002 36.313-.129 2.338-1.028 3.268-3.056 3.298-.437 0-.848.06-1.285.03-2.645-.15-4.006-2.249-3.467-5.248 1.516-8.546 2.44-17.151 2.363-25.877-.077-8.007-.899-15.833-3.75-23.239-.59-1.53-1.361-2.969-2.131-4.618-3.853 3.688-5.522 8.396-5.933 13.823-4.7-4.198-2.414-10.675 5.085-14.693-1.207-.21-2.414-.48-3.647-.599-7.781-.75-14.895 1.619-21.496 6.356-.745.54-.847 1.23-.873 2.129-.539 16.403 1.002 32.625 3.698 48.697.18 1.08.386 2.159.565 3.239.591 3.328-.847 6.477-3.595 7.676-2.414 1.08-4.906.9-7.345.33-2.132-.51-2.928-2.639-3.082-4.977-.976-15.563-1.13-31.126-.129-46.718.694-10.615 1.849-21.17 4.212-31.486 1.849-8.096 4.315-15.892 8.578-22.759.077-.09.077-.27.18-.599-8.218 4.048-13.278 11.154-16.385 20.75-1.31-4.168-2.055-8.186-1.002-12.354 1.027-4.079 3.647-6.387 6.908-7.827 3.031-1.35 6.216-1.799 9.452-1.829h2.285c-3.415-3.388-19.082-6.177-27.172-5.217-9.322 1.109-18.106 4.108-26.35 9.385-.025-.12-.103-.27-.077-.36 2.337-6.597 5.265-12.804 9.811-17.721 6.523-7.017 14.099-8.246 22.344-5.248 7.114 2.579 13.123 7.407 18.748 12.954 1.31 1.29 2.517 2.699 3.826 3.988.334.3.874.33 1.593.57-5.445-12.384-17.413-22.76-32.001-25.728.36-.3.617-.54.874-.72 3.39-2.069 6.908-3.718 10.735-4.258 6.677-.93 11.762 2.19 15.461 8.516 3.518 5.998 5.085 12.804 6.061 19.851.128.93.102 1.95 1.284 2.219.411-1.02.847-2.07 1.31-3.119 1.874-4.288 4.006-8.426 7.088-11.664 1.592-1.68 3.416-3.179 5.342-4.288 3.339-1.92 6.806-1.59 10.196.12 3.236 1.62 5.83 4.138 8.449 7.316zm-31.152 16.912c-3.955 4.168-10.607 27.048-9.554 32.745 4.289-4.108 8.347-4.318 12.764-3.149 2.363.63 4.648 1.65 6.883 2.759 1.977.99 3.852 2.309 5.753 3.509.436-1.02.462-1.02-.18-1.74-2.029-2.219-4.34-3.868-6.986-4.917-3.236-1.29-6.549-1.68-9.99-1.23 2.491-4.318 6.472-5.607 11.48-3.658-.668-9.685-3.724-17.872-10.17-24.319z"/>
<path class="wagon" d="M140.789 170.614c6.439 0 12.878.014 19.317 0 3.198 0 5.814 1.17 7.818 3.695.299.371.654.542 1.137.528a40.048 40.048 0 011.834 0c.696.028 1.094.414 1.094 1.113.015 1.027.015 2.054 0 3.096-.014.77-.398 1.17-1.179 1.17-1.052.014-2.104-.029-3.142.014-.625.028-.881-.186-.981-.828-.326-2.111-1.307-3.823-3.255-4.879-2.7-1.455-6.098-.756-7.931 1.698-.711.956-1.166 2.054-1.28 3.253-.056.556-.312.742-.852.742-6.098-.015-12.182-.015-18.28 0-.81 0-.824-.5-.938-1.056-.526-2.64-1.976-4.48-4.634-5.208-2.402-.656-5.06.257-6.524 2.283-.697.956-1.152 2.054-1.265 3.253-.057.528-.299.742-.811.699-.213-.014-.44.014-.653 0-.398-.014-1.01.228-1.123-.342-.1-.557-.384-1.27.327-1.727.227-.142.113-.356.113-.528.014-1.997 0-3.994 0-5.978 0-.927.071-.998 1.024-.998h20.184z"/>
<path class="wagon" d="M170.937 172.231c.015-1.812 0-3.639 0-5.451 0-.741-.014-1.498-.241-2.211-.825-2.682-2.132-5.122-3.696-7.419-1.407-2.069-3.099-3.809-5.472-4.794-2.275-.956-4.62-1.541-7.051-1.84-3.88-.485-7.789-.528-12.338-.514-5.558.043-11.727.614-17.881 1.356-2.801.342-4.734 2.382-4.677 5.435.071 3.724.014 7.448.014 11.172 0 1.227 0 1.227 1.18 1.227h39.289c1.876 0 3.681.328 5.387 1.155 1.336.642 2.53 1.484 3.482 2.611.484.557 1.052.528 1.606.4.597-.143.398-.714.398-1.127zm-39.814-11.785c0 1.184-.014 2.368.014 3.538.015.614-.199.87-.838.87a628.167 628.167 0 00-7.264 0c-.639 0-.838-.271-.824-.87a620.41 620.41 0 000-7.219c0-.614.199-.87.838-.87 2.417.014 4.833.014 7.264 0 .64 0 .839.256.824.87-.028 1.227-.014 2.454-.014 3.681zm11.002 3.51c0 .799-.099.884-.924.898h-3.596c-1.18 0-2.36-.014-3.525.015-.611.014-.867-.2-.867-.842.014-2.426.014-4.851 0-7.291 0-.642.256-.841.867-.841 2.402.014 4.79 0 7.192.014.754 0 .853.114.853.899v7.148zm10.206.898a637.89 637.89 0 00-7.32 0c-.555 0-.796-.199-.796-.77.014-2.468.014-4.951 0-7.419 0-.571.255-.77.796-.77 2.444.014 4.889.014 7.32 0 .597 0 .81.256.796.841-.028 1.199 0 2.411 0 3.61 0 1.227-.014 2.454 0 3.681.028.571-.185.827-.796.827zm15.138-.014H156.14c-.824 0-.924-.1-.924-.899v-7.162c0-.77.114-.899.868-.884 1.805.057 3.624-.186 5.415.142 1.834.328 3.255 1.327 4.236 2.925.952 1.541 1.805 3.139 2.459 4.837.299.784.128 1.041-.725 1.041zM127.982 175.85c-2.232 0-4.264 2.34-4.208 4.408.057 2.283 1.919 4.166 4.194 4.166 2.302 0 4.193-1.897 4.193-4.223.085-2.04-1.962-4.351-4.179-4.351zm-.014 6.463c-1.137 0-2.076-.956-2.076-2.097 0-1.142.924-2.098 2.076-2.112 1.137-.014 2.089.913 2.118 2.069 0 1.17-.953 2.154-2.118 2.14zM160.49 175.85c-2.246-.015-4.278 2.325-4.222 4.38.057 2.283 1.905 4.18 4.179 4.18 2.317.014 4.208-1.883 4.222-4.194.071-2.041-1.976-4.352-4.179-4.366zm.028 6.463c-1.165.028-2.132-.942-2.132-2.112 0-1.141.938-2.083 2.076-2.097 1.137 0 2.089.927 2.103 2.069a2.116 2.116 0 01-2.047 2.14z"/>
<path class="eiffel" d="M367.34 184.184c-4.553 0-8.626.063-12.699-.063-.719 0-1.618-1.069-2.037-1.823-1.678-2.956-3.475-5.911-4.673-9.055-1.917-4.968-5.511-7.483-10.004-9.056-9.045-3.144-17.911-2.829-26.657 1.195-3.235 1.447-5.691 3.71-7.189 7.169-1.138 2.578-2.815 4.905-3.654 7.546-1.138 3.71-3.294 4.59-6.709 4.276-2.935-.315-5.93-.063-9.345-.063 1.977-3.71 3.774-7.169 5.691-10.564 3.115-5.597 6.41-11.068 9.465-16.664.659-1.195 1.138-2.956.779-4.088-1.019-3.27.658-3.207 2.815-3.144 13.478.063 26.957 0 40.435 0h2.995c4.493 0 4.433 0 4.733 4.591.06 1.194.599 2.389 1.198 3.458 4.553 8.112 9.165 16.161 13.778 24.21.24.377.539.943 1.078 2.075zM317.44 107.844c1.917-28.234 3.834-56.469 5.811-84.892h5.211c1.917 28.298 3.834 56.47 5.751 84.892H317.44zM343.738 141.864c-2.995 0-5.691.126-8.327-.126-.718-.063-1.677-1.258-1.917-2.138-.958-3.836-1.797-7.672-2.396-11.57-.239-1.635-.778-2.138-2.276-2.075-2.456.062-4.972 0-7.728 0-1.138 5.282-2.216 10.501-3.354 15.72h-9.885c1.139-3.584 2.277-6.98 3.295-10.438.899-3.207 1.558-6.477 2.636-9.621.299-.881 1.557-1.95 2.396-1.95 6.59-.188 13.179-.126 19.709 0 .718 0 1.857.818 2.096 1.572 1.917 6.666 3.714 13.394 5.751 20.626zM325.767 117.717c-3.295 0-6.59-.126-9.885.063-2.875.126-2.875-2.201-3.115-4.025-.299-2.075.839-3.584 2.816-3.647 6.889-.126 13.778-.189 20.607.126 1.078.063 2.875 2.264 2.875 3.458-.06 1.761-.479 4.214-3.474 4.025-3.235-.189-6.53 0-9.824 0zM350.567 144.819c.479 2.453-.958 2.516-2.456 2.516h-15.216c-9.764 0-19.528-.063-29.293 0-1.557 0-2.875-.126-2.456-2.516h49.421zM325.887 0c.119 1.824.179 3.207.299 4.528.18 2.263.12 4.213 2.037 6.35 1.737 1.95 1.677 5.723 2.037 8.741.06.503-1.618 1.887-2.397 1.824-2.396-.189-6.289 1.824-6.469-2.83-.12-2.766.659-6.225 2.336-8.237 1.438-1.698 1.857-3.082 1.917-5.094 0-1.572.12-3.27.24-5.282zM351.106 186.448h20.727v.628h-20.727c.06-.188 0-.377 0-.628zM300.607 187.076H280.06c0-.188 0-.377-.06-.565h20.607a.91.91 0 010 .565z"/>
<path class="kangaroo" d="M280.287 154.893c.246.211.503.382.684.617.152.193.234.452.328.693.286.746.228 1.515.216 2.297-.012.798.123 1.597.205 2.396.017.182.07.364.128.541.199.587-.006 1.127-.579 1.368-.631.259-1.233.2-1.771-.329l.199 1.111c.257 1.48.052 2.901-.497 4.282a2.308 2.308 0 01-.398.675.737.737 0 00-.181.523c.006.352-.012.705-.023 1.057-.035.911.222 1.704.842 2.397.368.411.76.828.847 1.41.041.258.035.523.053.787.035.564.058 1.134.099 1.698.041.61-.216 1.086-.684 1.439-.099.076-.304.123-.415.07-.403-.182-.83-1.04-.742-1.474.035-.182.122-.376.245-.517.485-.576.468-1.522-.058-2.056-.082-.082-.176-.159-.257-.235-.293-.27-.614-.523-.866-.828-.251-.306-.438-.664-.66-1.005-.164.3-.357.617-.509.946-.041.082.017.241.076.335.438.705.889 1.404 1.327 2.109.111.182.199.381.304.564.328.575.252 1.168.07 1.762a.53.53 0 01-.485.405 2.095 2.095 0 00-.368.082c-.427.13-.719-.011-.907-.417-.064-.141-.245-.235-.292-.376-.052-.17-.082-.399-.012-.552.445-.94.351-1.457-.444-2.138-.082-.071-.164-.135-.257-.217-.38.517-.772 1.004-1.105 1.527-.094.153-.047.423-.012.623.158.887.363 1.762.503 2.649.275 1.744.205 3.489-.134 5.222-.182.916-.258 1.862-.474 2.772-.164.688-.438 1.351-.713 2.003-.357.858-.556 1.727-.392 2.656.07.399.211.505.608.534 1.28.094 2.567.17 3.847.27.386.03.783.065 1.146.182.292.094.544.318.813.488.187.123.374.241.543.388.205.17.404.358.579.558.053.064.064.211.029.293-.023.053-.175.065-.263.059-.772-.076-1.543-.158-2.204-.223-.269.135-.444.288-.637.317-1.146.153-2.274.012-3.374-.323-.572-.176-.789-.229-1.508-.153.228.235.439.441.637.652.152.165.304.329.427.511.053.083.076.235.035.323-.023.053-.187.065-.286.059-.766-.029-1.532-.064-2.315-.1-.076.353-.392.359-.673.376-1.017.077-2.034-.017-3.005-.329-.701-.223-1.374-.217-2.069-.111a6.544 6.544 0 01-.959.082c-.76 0-1.123-.311-1.111-1.075.012-.74.041-1.498.199-2.215.275-1.251.111-2.467-.047-3.7-.123-.94-.713-1.598-1.216-2.367-.357.54-.696 1.063-1.047 1.58-.929 1.368-1.917 2.69-3.092 3.853-1.479 1.463-3.163 2.585-5.245 2.937-.964.165-1.952.229-2.934.241-2.894.035-5.783.023-8.677.035-.876.006-1.753.018-2.63.03-.164 0-.334.005-.497-.024-.094-.018-.246-.1-.246-.153 0-.094.07-.241.152-.282.316-.146.637-.305.976-.37 3.485-.628 6.975-1.239 10.46-1.85 1.987-.347 3.654-1.316 5.104-2.673 1.999-1.874 3.332-4.135 3.852-6.855.182-.94.187-1.885.117-2.837-.087-1.198-.163-2.403.012-3.601.333-2.273 1.228-4.311 2.561-6.162 1.187-1.644 2.724-2.884 4.548-3.771 1.158-.564 2.298-1.157 3.298-1.985.415-.341.801-.711 1.221-1.046.819-.652 1.76-1.087 2.742-1.416 1.415-.475 2.117-1.486 2.298-2.919.041-.347.07-.699.059-1.046-.024-.646.058-1.263.309-1.862.1-.241.088-.528.123-.769-1.526-.734-2.122-2.039-2.338-3.56-.065-.446-.006-.916.064-1.369.058-.376.281-.434.538-.152.649.716 1.426 1.263 2.21 1.815.742.523 1.151 1.28 1.321 2.173.082.423.134.464.485.458.31-.005.456-.123.491-.499.117-1.275.813-2.214 1.696-3.054.368-.347.754-.682 1.152-.993.339-.259.543-.159.543.276 0 .364-.041.74-.123 1.098-.111.511-.292 1.011-.409 1.528a2.89 2.89 0 01-.807 1.433c-.122.135-.245.276-.374.423zm-9.372 38.792c-.163-.599.036-1.127.147-1.674.076-.358.181-.734.14-1.092-.134-1.193-.509-2.326-.982-3.425-.187-.44-.509-.822-.795-1.269-.334.552-.679 1.034-.924 1.563-.456.981-.906 1.962-1.462 2.896-.339.564-.578 1.198-.578 1.885 0 .359.134.517.461.558 1.316.188 2.625.365 3.993.558z"/>
<path class="temple" d="M14.625 183.913v-3.133h3.166v-18.626c-4.204.632-7.522-1.061-10.41-3.841-1.671-1.618-2.406-3.159-2.38-4.878 1.823 0 3.672.101 5.521-.025 3.445-.253 6.737-1.112 9.802-2.679.633-.328 1.241-.707 1.849-1.087 1.494-.935 2.305-2.097 2.178-4.018-.203-2.628-.05-5.307-.05-7.96v-1.39c-4.281.707-8.815-1.82-9.625-5.333.734.177 1.393.354 2.102.48 4.432.834 8.434-.429 12.259-2.476 6.458-3.463 11.575-8.517 16.285-14.026.532-.607 1.014-1.239 1.545-1.845.026-.025.077-.025.153-.076 1.722 1.921 3.393 3.892 5.192 5.787 3.343 3.538 6.965 6.748 11.17 9.225 4.913 2.906 10.054 4.776 15.88 2.881-.254 3.234-5.142 6.014-9.549 5.383v5.408c0 1.567.076 3.108-.025 4.675-.076 1.087.354 1.82 1.165 2.477 3.065 2.502 6.687 3.715 10.536 4.271 2.482.354 5.015.404 7.573.581.633 4.018-6.838 9.148-12.689 8.416v18.6h3.09v3.184c-21.554.025-43.082.025-64.738.025zm45.236-3.209v-19.257H34.153v19.257H59.86zm-22.466-45.161v12.787h19.224v-12.787H37.395zm-9.777 0v12.787h6.383v-12.787h-6.383zm38.803 0h-6.383v12.787h6.383v-12.787z"/></svg>
