<svg xmlns="http://www.w3.org/2000/svg" xmlns:xlink="http://www.w3.org/1999/xlink" viewBox="0 0 100 100"><circle fill="#fff" r="48%" cx="50%" cy="50%"/><g transform="matrix(.69 0 0 .69 15.5 15.5)" fill="#fd0f15"><svg xmlns="http://www.w3.org/2000/svg" viewBox="0 0 30 30"><g fill="none" fill-rule="evenodd"><g class="map" fill="#fd0f15"><path d="M8.727079 9.4470503L5 11v16.916667l6-2.5V13.839778c.191917.320255.390952.645026.596546.973743.13297.212598.267546.425075.403454.637144v9.966002l6 2.5V16.969875c.338486-.501383.673096-1.009116 1-1.51921v12.466002l6-2.5V8.5l-2.821626 1.1756776c.191089-.4534226.350521-.881126.476522-1.2818844l2.425457-1.0106069C25.586084 7.1724649 26 7.4469658 26 7.998326v17.594056c0 .261204-.210049.578472-.469159.686434l-6.561682 2.734035c-.268552.111896-.67479.109803-.928449.004112L11.5 26.291667 4.919647 29.03348c-.48364.201517-.88331-.040723-.917304-.544487L4 28.487793V10.824285c0-.261205.210049-.578472.469159-.686434l3.912413-1.6301727c.097378.2987473.212783.6120343.345507.939372zm8.041034 7.4270807c.720791-1.01975 1.441608-2.092613 2.11488-3.16908.433446-.693018.83325-1.365804 1.192457-2.011232C21.306073 9.4826229 22 7.7151559 22 6.5 22 2.9101494 19.089851 0 15.5 0S9 2.9101494 9 6.5c0 1.2151559.693927 2.9826229 1.92455 5.193819.359207.645428.759011 1.318214 1.192457 2.011232.673272 1.076467 1.394089 2.14933 2.11488 3.16908.252286.356925.486616.68181.697031.968428.126553.172386.217237.294003.266084.358615.152985.202356.457011.202356.609996 0 .048847-.064612.139531-.186229.266084-.358615.210415-.286618.444745-.611503.697031-.968428zm-1.885359-.848886c-.683779-.967386-1.367535-1.985088-2.005217-3.004651-.409361-.654511-.786461-1.289092-1.124496-1.896476C10.631602 9.1091039 10 7.5003833 10 6.5 10 3.4624336 12.462434 1 15.5 1S21 3.4624336 21 6.5c0 1.0003833-.631602 2.6091039-1.753041 4.624118-.338035.607384-.715135 1.241965-1.124496 1.896476-.637682 1.019563-1.321438 2.037265-2.005217 3.004651-.239315.338572-.617246.850947-.617246.850947s-.377931-.512375-.617246-.850947zM15.5 9C16.880712 9 18 7.8807121 18 6.5S16.880712 4 15.5 4 13 5.1192879 13 6.5 14.119288 9 15.5 9zm0-1c.828427 0 1.5-.6715728 1.5-1.5S16.328427 5 15.5 5 14 5.6715728 14 6.5 14.671573 8 15.5 8z"/></g></g></svg></g></svg>
