<svg height='100px' width='100px'  fill="#000000" xmlns:dc="http://purl.org/dc/elements/1.1/" xmlns:cc="http://creativecommons.org/ns#" xmlns:rdf="http://www.w3.org/1999/02/22-rdf-syntax-ns#" xmlns:svg="http://www.w3.org/2000/svg" xmlns="http://www.w3.org/2000/svg" xmlns:sodipodi="http://sodipodi.sourceforge.net/DTD/sodipodi-0.dtd" xmlns:inkscape="http://www.inkscape.org/namespaces/inkscape" version="1.1" x="0px" y="0px" viewBox="0 0 100 100"><g transform="translate(0,-952.36218)"><path style="text-indent:0;text-transform:none;direction:ltr;block-progression:tb;baseline-shift:baseline;color:#000000;enable-background:accumulate;" d="m 35.377874,961.36325 a 3.0003,3.0003 0 0 0 -0.9063,0.1875 c -16.1759,5.9947 -25.4686997,21.7109 -25.4686997,39.59375 0,23.2769 18.9104997,42.2187 42.1873997,42.2187 17.8829,0 33.6304,-9.324 39.625,-25.5 a 3.0003,3.0003 0 0 0 -3.9374,-3.8125 c -4.0936,1.6462 -8.5949,2.5 -13.3438,2.5 -19.5969,0 -37.7188,-18.15315 -37.7188,-37.74995 0,-4.7489 0.8226,-9.2504 2.4688,-13.3437 a 3.0003,3.0003 0 0 0 -2.9062,-4.0938 z m -4.6563,8.7188 c -0.5822,2.8241 -0.9063,5.7363 -0.9063,8.7187 0,23.21085 20.5079,43.74995 43.7188,43.74995 2.9824,0 5.8946,-0.3553 8.7188,-0.9375 -6.2657,10.0487 -17.6431,15.75 -31.0626,15.75 -20.0342,0 -36.1874,-16.1844 -36.1874,-36.2187 0,-13.42105 5.6679,-24.79725 15.7187,-31.06245 z" fill="#000000" fill-opacity="1" stroke="none" marker="none" visibility="visible" display="inline" overflow="visible"></path></g></svg>