<svg height='100px' width='100px'  fill="#000000" xmlns="http://www.w3.org/2000/svg" xmlns:xlink="http://www.w3.org/1999/xlink" version="1.1" x="0px" y="0px" viewBox="0 0 100 100" style="enable-background:new 0 0 100 100;" xml:space="preserve"><path d="M94.0293884,72.1439438c-0.920784-1.4166183-2.550087-2.19561-4.2498627-1.8415604  c-9.0655823,1.629303-17.6357574,0.3540421-26.2059402-3.9662781C50.045887,59.5370255,40.6967201,46.4338379,39.2092056,32.2685089  c-0.8498878-8.2157001,0.5667343-16.4318314,4.249855-23.7976475c0.7080956-1.5584102,0.4958382-3.3290763-0.5667343-4.6039038  c-1.1330338-1.2039318-2.7623405-1.6997702-4.3203201-1.1330361C15.5533485,10.3833199,1.8838592,33.4724426,6.0623889,57.4827766  C9.5328245,77.4559402,25.8941936,93.675087,45.9378204,96.8623734C48.6292686,97.2873154,51.3207169,97.5,54.0121613,97.5  c15.865097,0,30.6680603-7.5784988,39.9463272-20.8939438C94.8792725,75.2603302,94.9501648,73.4896622,94.0293884,72.1439438z   M46.7877083,91.6212692c-17.8480206-2.8328094-32.4382935-17.2817154-35.4842186-34.9883804  C7.7621589,36.163887,18.6697388,16.4743061,37.4385376,8.7540131c-3.1868515,7.5785027-4.3912163,15.865097-3.5413322,24.0812302  c0.8503189,7.9325485,3.895813,15.5819473,8.6410751,22.2396698c4.6743698,6.5868263,11.0489388,12.1819763,18.6274414,16.0068893  c8.5697441,4.3203201,17.493969,5.9491959,26.6308861,4.8866196C78.0224991,88.2217255,62.5823402,94.1709213,46.7877083,91.6212692  z"></path></svg>