<svg height='32px' width='32px'  fill="#fd0f15" xmlns="http://www.w3.org/2000/svg" xmlns:xlink="http://www.w3.org/1999/xlink" version="1.1" x="0px" y="0px" viewBox="0 0 32 32" enable-background="new 0 0 32 32" xml:space="preserve"><path d="M21.193,23.268l-4.438-2.193c-0.472-0.237-1.206-0.215-1.669,0.051l-1.074,0.623c-0.208,0.119-0.556,0.057-0.703-0.125  l-0.104-0.131c-0.618-0.771-1.388-1.729-1.976-2.748c-0.595-1.03-1.063-2.235-1.404-3.115l-0.049-0.126  c-0.088-0.227,0.027-0.547,0.242-0.671l1.077-0.621c0.466-0.27,0.844-0.878,0.879-1.415l0.319-4.944  c0.045-0.703-0.453-1.397-1.134-1.58L9.09,5.717c-1.036-0.275-2.604,0.694-3.633,1.51c-0.252,0.2-0.537,0.557-0.691,0.892  c-0.665,1.447-2.689,5.849,1.666,13.393c4.354,7.543,9.178,7.992,10.835,8.147l0.143,0.006c0.289,0,0.652-0.065,0.906-0.165  c1.268-0.502,2.836-1.324,3.123-2.396l0.555-2.065C22.176,24.357,21.825,23.58,21.193,23.268z M21.027,24.779l-0.555,2.066  c-0.131,0.491-1.123,1.168-2.521,1.723c-0.137,0.054-0.379,0.097-0.542,0.097l-0.121-0.009c-1.458-0.137-5.896-0.551-9.991-7.646  C3.202,13.916,5.063,9.867,5.703,8.474C5.764,8.342,5.95,8.112,6.079,8.009c1.063-0.842,2.03-1.345,2.589-1.345  c0.062,0,0.117,0.006,0.164,0.019L10.9,7.237c0.221,0.06,0.41,0.322,0.395,0.55l-0.319,4.943c-0.013,0.207-0.203,0.511-0.381,0.614  l-1.077,0.621c-0.646,0.374-0.942,1.208-0.674,1.899l0.049,0.126c0.353,0.91,0.836,2.156,1.47,3.253  c0.626,1.085,1.456,2.118,2.062,2.874l0.105,0.132c0.448,0.554,1.354,0.724,1.981,0.364l1.074-0.623  c0.169-0.098,0.548-0.109,0.724-0.021l4.44,2.194C20.954,24.266,21.087,24.559,21.027,24.779z"></path><path d="M15.919,10.706c3.343,1.122,5.336,4.574,4.636,8.03c-0.056,0.271,0.119,0.535,0.391,0.59c0.033,0.007,0.066,0.01,0.1,0.01  c0.232,0,0.441-0.164,0.49-0.4c0.8-3.951-1.479-7.896-5.298-9.178c-0.262-0.087-0.545,0.053-0.633,0.315  C15.516,10.335,15.657,10.618,15.919,10.706z"></path><path d="M17.219,6.048c-0.263-0.084-0.544,0.064-0.626,0.328C16.51,6.64,16.657,6.92,16.921,7.002  c5.345,1.669,8.568,7.255,7.341,12.717c-0.061,0.271,0.109,0.537,0.379,0.598c0.036,0.009,0.073,0.013,0.109,0.013  c0.229,0,0.436-0.158,0.486-0.392C26.578,13.972,23.057,7.871,17.219,6.048z"></path><path d="M18.206,2.342c-0.267-0.081-0.543,0.071-0.623,0.335c-0.08,0.265,0.069,0.543,0.335,0.623  c7.41,2.229,11.824,9.875,10.05,17.406c-0.063,0.269,0.104,0.538,0.372,0.601c0.039,0.01,0.077,0.014,0.115,0.014  c0.227,0,0.432-0.154,0.486-0.385C30.836,12.891,26.121,4.724,18.206,2.342z"></path></svg>
