<svg height='100px' width='100px'  fill="#000000" xmlns="http://www.w3.org/2000/svg" xmlns:xlink="http://www.w3.org/1999/xlink" version="1.1" x="0px" y="0px" viewBox="0 0 32 32" enable-background="new 0 0 32 32" xml:space="preserve"><g><rect fill="none" width="32" height="32"></rect></g><g><g><path d="M16,25c-4.962,0-9-4.038-9-9s4.038-9,9-9s9,4.038,9,9S20.962,25,16,25z M16,9c-3.86,0-7,3.14-7,7s3.14,7,7,7s7-3.14,7-7    S19.86,9,16,9z"></path></g><g><path d="M16,5c-0.552,0-1-0.448-1-1V2c0-0.552,0.448-1,1-1s1,0.448,1,1v2C17,4.552,16.552,5,16,5z"></path></g><g><path d="M16,31c-0.552,0-1-0.448-1-1v-2c0-0.552,0.448-1,1-1s1,0.448,1,1v2C17,30.552,16.552,31,16,31z"></path></g><g><path d="M24.485,8.515c-0.256,0-0.512-0.098-0.707-0.293c-0.391-0.391-0.391-1.023,0-1.414l1.414-1.414    c0.391-0.391,1.023-0.391,1.414,0s0.391,1.023,0,1.414l-1.414,1.414C24.997,8.417,24.741,8.515,24.485,8.515z"></path></g><g><path d="M6.101,26.899c-0.256,0-0.512-0.098-0.707-0.293c-0.391-0.391-0.391-1.023,0-1.414l1.414-1.414    c0.391-0.391,1.023-0.391,1.414,0s0.391,1.023,0,1.414l-1.414,1.414C6.612,26.802,6.356,26.899,6.101,26.899z"></path></g><g><path d="M30,17h-2c-0.552,0-1-0.448-1-1s0.448-1,1-1h2c0.552,0,1,0.448,1,1S30.552,17,30,17z"></path></g><g><path d="M4,17H2c-0.552,0-1-0.448-1-1s0.448-1,1-1h2c0.552,0,1,0.448,1,1S4.552,17,4,17z"></path></g><g><path d="M25.899,26.899c-0.256,0-0.512-0.098-0.707-0.293l-1.414-1.414c-0.391-0.391-0.391-1.023,0-1.414s1.023-0.391,1.414,0    l1.414,1.414c0.391,0.391,0.391,1.023,0,1.414C26.411,26.802,26.155,26.899,25.899,26.899z"></path></g><g><path d="M7.515,8.515c-0.256,0-0.512-0.098-0.707-0.293L5.394,6.808c-0.391-0.391-0.391-1.023,0-1.414s1.023-0.391,1.414,0    l1.414,1.414c0.391,0.391,0.391,1.023,0,1.414C8.026,8.417,7.771,8.515,7.515,8.515z"></path></g></g></svg>